<svg width="25" height="25" viewBox="0 0 25 25" fill="none" xmlns="http://www.w3.org/2000/svg">
<g id="Logo">
<path id="Vector" d="M24.7569 10.0519H23.75V10H12.5V15H19.5644C18.5338 17.9106 15.7644 20 12.5 20C8.35812 20 5 16.6419 5 12.5C5 8.35812 8.35812 5 12.5 5C14.4119 5 16.1513 5.72125 17.4756 6.89937L21.0112 3.36375C18.7787 1.28312 15.7925 0 12.5 0C5.59688 0 0 5.59688 0 12.5C0 19.4031 5.59688 25 12.5 25C19.4031 25 25 19.4031 25 12.5C25 11.6619 24.9137 10.8438 24.7569 10.0519Z" fill="#FFC107"/>
<path id="Vector_2" d="M1.44116 6.68188L5.54804 9.69375C6.65929 6.9425 9.35054 5 12.4999 5C14.4118 5 16.1512 5.72125 17.4755 6.89937L21.0112 3.36375C18.7787 1.28312 15.7924 0 12.4999 0C7.69866 0 3.53491 2.71062 1.44116 6.68188Z" fill="#FF3D00"/>
<path id="Vector_3" d="M12.5002 24.9999C15.7289 24.9999 18.6627 23.7643 20.8808 21.7549L17.0121 18.4812C15.7149 19.4677 14.1299 20.0012 12.5002 19.9999C9.24895 19.9999 6.48832 17.9268 5.44832 15.0337L1.37207 18.1743C3.44082 22.2224 7.64207 24.9999 12.5002 24.9999Z" fill="#4CAF50"/>
<path id="Vector_4" d="M24.7569 10.0519H23.75V10H12.5V15H19.5644C19.0714 16.3853 18.1833 17.5957 17.01 18.4819L17.0119 18.4806L20.8806 21.7544C20.6069 22.0031 25 18.75 25 12.5C25 11.6619 24.9137 10.8438 24.7569 10.0519Z" fill="#1976D2"/>
</g>
</svg>
