<svg width="90" height="86" viewBox="0 0 90 86" fill="none" xmlns="http://www.w3.org/2000/svg">
<path d="M40.6256 45.9168L34.584 39.9793C33.8201 39.2154 32.8659 38.8335 31.7215 38.8335C30.577 38.8335 29.5868 39.2502 28.7507 40.0835C27.9868 40.8474 27.6048 41.8196 27.6048 43.0002C27.6048 44.1807 27.9868 45.1529 28.7507 45.9168L37.709 54.8752C38.5423 55.7085 39.5145 56.1252 40.6256 56.1252C41.7368 56.1252 42.709 55.7085 43.5423 54.8752L61.2506 37.1668C62.084 36.3335 62.4826 35.3613 62.4465 34.2502C62.4104 33.139 62.0118 32.1668 61.2506 31.3335C60.4173 30.5002 59.4284 30.0668 58.284 30.0335C57.1395 30.0002 56.1493 30.3988 55.3132 31.2293L40.6256 45.9168ZM28.959 83.6252L22.9173 73.4168L11.459 70.9168C10.4173 70.7085 9.58398 70.171 8.95898 69.3043C8.33398 68.4377 8.09093 67.4821 8.22982 66.4377L9.37565 54.6668L1.56315 45.7085C0.868707 44.9446 0.521484 44.0418 0.521484 43.0002C0.521484 41.9585 0.868707 41.0557 1.56315 40.2918L9.37565 31.3335L8.22982 19.5627C8.09093 18.521 8.33398 17.5654 8.95898 16.696C9.58398 15.8266 10.4173 15.2891 11.459 15.0835L22.9173 12.5835L28.959 2.37516C29.5145 1.47239 30.2784 0.864053 31.2507 0.550164C32.2229 0.236275 33.1951 0.289053 34.1673 0.708497L45.0006 5.29183L55.834 0.708497C56.8062 0.29183 57.7784 0.239053 58.7507 0.550164C59.7229 0.861275 60.4868 1.46961 61.0423 2.37516L67.084 12.5835L78.5423 15.0835C79.584 15.2918 80.4173 15.8307 81.0423 16.7002C81.6673 17.5696 81.9104 18.5238 81.7715 19.5627L80.6256 31.3335L88.4381 40.2918C89.1326 41.0557 89.4798 41.9585 89.4798 43.0002C89.4798 44.0418 89.1326 44.9446 88.4381 45.7085L80.6256 54.6668L81.7715 66.4377C81.9104 67.4793 81.6673 68.4349 81.0423 69.3043C80.4173 70.1738 79.584 70.7113 78.5423 70.9168L67.084 73.4168L61.0423 83.6252C60.4868 84.5279 59.7229 85.1363 58.7507 85.4502C57.7784 85.7641 56.8062 85.7113 55.834 85.2918L45.0006 80.7085L34.1673 85.2918C33.1951 85.7085 32.2229 85.7613 31.2507 85.4502C30.2784 85.1391 29.5145 84.5307 28.959 83.6252Z" fill="#0063F7"/>
</svg>
