<svg width="1943" height="294" viewBox="0 0 1943 294" fill="none" xmlns="http://www.w3.org/2000/svg">
<path d="M0 52.4581C19.646 52.057 39.2923 52.0721 58.9378 52.2099C62.4146 52.2343 65.941 52.4858 69.3522 53.1251C77.9857 54.7431 83.982 59.6904 85.8338 68.4302C91.6899 96.0695 97.2948 123.762 102.731 151.609C87.9722 118.954 64.3097 94.7051 33.029 77.5851C22.2712 72.7262 11.5135 67.8673 0.377842 63.0042C-5.96046e-08 59.6387 0 56.2774 0 52.4581Z" fill="#F9A71D"/>
<path d="M953.776 43.557C972.546 24.0931 995.371 11.6312 1021.45 5.21714C1102.31 -14.6739 1183.43 38.3827 1198.27 120.681C1212.23 198.137 1164.18 272.258 1087.38 289.33C1036.63 300.609 991.862 287.143 954.03 250.509C958.713 244.118 963.762 238.565 968.182 232.549C983.501 211.704 991.77 188.074 995.454 162.743C1005.96 171.062 1017.26 173.311 1029.46 168.456C1039.09 164.623 1045.3 157.466 1048.28 146.895C1043.03 146.895 1038.37 146.727 1033.73 146.998C1032.35 147.079 1030.75 148.12 1029.76 149.191C1022.95 156.574 1012.66 157.175 1005.85 150.443C999.338 144.008 999.431 133.883 1006.06 127.732C1013.11 121.185 1023.26 122.033 1029.96 129.613C1030.84 130.604 1032.24 131.68 1033.44 131.742C1038.19 131.986 1042.96 131.842 1048.19 131.842C1046.69 125.156 1043.43 120.312 1038.97 116.161C1028.17 106.101 1007.92 103.105 992.881 117.714C990.771 110.53 989.186 103.573 986.799 96.9034C979.731 77.1545 968.976 59.6486 953.961 44.628C953.817 44.1369 953.768 43.852 953.776 43.557ZM1178.38 141.5C1178.38 130.757 1178.38 120.014 1178.38 109.358C1173.2 109.358 1168.81 109.358 1163.92 109.358C1163.92 114.912 1163.92 120.097 1163.92 125.444C1151.01 120.365 1141.18 122.542 1134.4 131.674C1127.62 140.816 1128.03 153.752 1135.4 162.687C1142.57 171.381 1151.85 172.796 1164 167.126C1167.91 172.522 1173.28 168.404 1178.38 170.143C1178.38 160.396 1178.38 151.448 1178.38 141.5ZM1064.4 169.304C1071.16 172.062 1077.42 170.541 1083.13 167.017C1087.5 172.131 1092.86 168.712 1097.71 169.852C1097.71 153.966 1097.71 138.755 1097.71 123.758C1090.27 121.322 1083.19 125.322 1075.76 123.175C1071.52 121.951 1065.72 123.281 1061.53 125.321C1052.87 129.536 1048.84 137.53 1049.08 147.014C1049.33 157.134 1054.39 164.637 1064.4 169.304ZM1117.07 127.929C1116.63 126.401 1116.2 124.873 1115.85 123.64C1111.41 123.64 1107.34 123.64 1103.37 123.64C1103.37 139.164 1103.37 154.255 1103.37 169.493C1108.1 169.493 1112.51 169.493 1117.51 169.493C1117.51 161.078 1117.44 152.953 1117.53 144.829C1117.59 139.175 1119.5 137.092 1125.08 136.225C1126.51 136.003 1127.96 135.931 1129.38 135.793C1129.38 131.442 1129.38 127.396 1129.38 121.442C1124.8 124 1121.34 125.934 1117.07 127.929ZM1183.23 165.07C1178.75 164.489 1180.01 167.038 1180.79 170.516C1181.68 168.661 1182.11 167.763 1181.98 168.035C1183.97 168.636 1185.74 169.629 1187.41 169.468C1188.18 169.392 1188.74 167.083 1189.36 165.871C1186.95 165.524 1185.5 165.316 1183.23 165.07Z" fill="#E87A01"/>
<path d="M953.46 43.4194C953.768 43.852 953.817 44.1369 953.617 44.6951C952.02 45.9907 950.607 46.8808 949.458 48.0337C936.952 60.579 928.035 75.5547 921.372 91.7522C916.21 104.304 912.06 117.31 912.015 131.397C912.001 131.615 911.796 131.999 911.626 132.133C911.262 132.49 911.141 132.748 911.027 133.4C905.638 142.544 906.381 151.307 911.051 160.475C911.357 162.68 911.737 164.457 911.962 166.254C915.046 190.933 923.885 213.31 938.756 233.27C943.178 239.204 947.676 245.081 952.139 250.985C935.574 268.373 915.479 280.104 892.626 286.868C807.336 312.114 720.271 255.693 708.23 167.59C697.898 92.0004 745.263 21.8458 819.49 4.88955C869.138 -6.45193 912.943 6.82051 950.51 41.018C951.366 41.7969 952.265 42.5282 953.46 43.4194ZM879.937 131.36C874.972 122.982 865.604 120.071 856.128 123.959C849.53 126.668 845.723 132.215 846.104 138.568C846.479 144.84 849.964 148.766 857.214 150.999C859.118 151.586 861.234 151.724 862.943 152.644C864.644 153.56 866.197 155.038 867.272 156.634C867.554 157.053 865.681 159.869 865.042 159.782C863.195 159.531 861.461 158.386 859.705 157.546C858.618 157.026 857.596 155.991 856.505 155.932C852.74 155.729 848.958 155.854 844.918 155.854C845.183 157.389 845.226 158.395 845.535 159.311C849.036 169.702 863.203 174.116 874.204 168.215C879.813 165.206 882.964 160.609 882.582 154.069C882.193 147.427 877.775 144.153 872.072 142.193C869.25 141.224 866.173 140.878 863.508 139.621C862.19 139 861.193 137.05 860.765 135.503C860.588 134.865 862.344 132.909 863.122 132.963C864.508 133.06 866.078 133.974 867.103 135.01C868.771 136.697 879.162 138.061 880.799 136.361C881.21 135.934 880.855 134.771 881.786 133.849C883.225 133.988 884.664 134.127 886.529 134.307C886.529 146.14 886.529 157.711 886.529 169.346C891.529 169.346 896.059 169.346 901.023 169.346C901.023 157.37 901.023 145.794 901.023 134.263C903.214 134.044 904.961 133.869 906.674 133.697C906.674 130.084 906.674 126.824 906.674 123.286C904.705 123.16 902.964 123.049 900.763 122.908C900.763 118.202 900.763 113.787 900.763 109.239C895.863 109.239 891.456 109.239 886.542 109.239C886.542 113.886 886.542 118.294 886.542 122.632C884.473 122.984 882.904 123.251 881.876 123.426C881.176 126.617 880.577 129.342 879.937 131.36ZM787.219 169.741C790.91 170.105 790.071 167.395 790.075 165.401C790.106 147.741 790.102 130.081 790.077 112.42C790.075 111.331 789.81 110.241 789.665 109.134C782.696 109.134 776.056 109.134 769.064 109.134C765.048 121.389 761.037 133.627 756.746 146.721C752.842 134.852 749.301 123.877 745.565 112.969C745.055 111.48 743.631 109.258 742.524 109.193C736.295 108.827 730.034 109.017 723.776 109.017C723.776 129.59 723.776 149.499 723.776 169.431C728.548 169.431 732.963 169.431 737.79 169.431C737.79 157.47 737.79 145.812 737.79 134.154C739.075 135.163 739.506 136.324 739.899 137.498C743.116 147.105 746.597 156.634 749.426 166.354C750.906 171.437 754.53 169.315 757.449 169.715C760.264 170.1 762.338 169.726 763.368 166.188C765.64 158.385 768.513 150.756 771.15 143.06C772.264 139.811 773.403 136.57 774.53 133.326C774.858 133.402 775.187 133.479 775.515 133.556C775.515 145.471 775.515 157.385 775.515 169.739C779.35 169.739 782.814 169.739 787.219 169.741ZM842.261 136.509C842.261 132.231 842.261 127.953 842.261 122.909C836.864 123.269 832.064 123.59 827.263 123.911C827.305 124.403 827.347 124.895 827.388 125.388C816.05 120.205 805.626 122.235 798.756 130.964C791.696 139.933 791.554 152.358 798.406 161.498C805.598 171.09 814.701 172.797 827.817 167.133C831.832 172.364 837.139 168.489 842.261 170.061C842.261 158.683 842.261 148.094 842.261 136.509Z" fill="#FF0808"/>
<path d="M1926.51 124.013C1926.51 120.528 1926.51 117.541 1926.51 114.235C1921.3 114.235 1916.37 114.235 1911.17 114.235C1911.05 115.763 1910.92 117.312 1910.69 120.132C1906.19 109.921 1898.24 115.437 1891.47 113.592C1891.47 116.93 1891.47 119.677 1891.47 122.598C1890.67 122.343 1890.16 122.297 1890.13 122.152C1888.58 114.571 1883.59 113.075 1876.65 113.835C1871.55 114.395 1866.31 113.643 1861.17 114.013C1857.12 114.305 1853.13 115.418 1849.74 116.05C1847.41 115.275 1845.37 114.016 1843.32 114.004C1820.16 113.864 1796.99 113.999 1773.83 113.852C1768.45 113.818 1763.28 113.349 1762.34 120.834C1761.44 118.634 1760.55 116.435 1759.61 114.123C1753.63 114.123 1747.68 114.123 1741.38 114.123C1741.24 117.009 1741.1 119.713 1740.96 122.534C1740.46 122.262 1740.08 122.189 1739.97 121.977C1738.6 119.37 1737.78 115.083 1735.8 114.47C1731.85 113.238 1727.25 113.82 1722.95 114.095C1721.97 114.158 1720.79 115.874 1720.24 117.075C1718.02 121.908 1716.01 126.839 1713.91 131.728C1713.87 131.829 1713.68 131.867 1713.27 132.094C1713.27 100.454 1713.27 68.9734 1713.27 37.2451C1789.31 37.2451 1865.24 37.2451 1941.5 37.2451C1941.5 78.4966 1941.5 119.715 1941.5 161.577C1939.45 161.577 1937.5 161.577 1935.54 161.577C1894.05 161.577 1852.55 161.626 1811.06 161.51C1806.35 161.497 1802 161.411 1799.47 167.605C1797.12 161.212 1792.66 161.438 1788.01 161.522C1778.03 161.702 1768.05 161.577 1757.68 161.577C1757.68 173.69 1757.68 185.412 1757.68 197.922C1763.2 197.922 1768.79 197.922 1774.37 197.922C1778.7 197.922 1783.04 197.858 1787.37 197.94C1792.05 198.028 1796.91 198.686 1799.32 191.182C1801.69 199.092 1806.86 197.932 1811.59 197.924C1816.23 197.916 1820.87 197.922 1825.85 197.922C1826.01 195.159 1826.15 192.73 1826.32 189.849C1830.03 189.513 1833.72 189.177 1837.87 188.799C1837.87 191.81 1837.87 194.584 1837.87 197.633C1843.04 197.633 1847.8 197.633 1852.69 197.633C1852.84 196.271 1852.99 194.97 1853.15 193.496C1853.6 193.672 1854.2 193.712 1854.36 193.999C1856.34 197.495 1859.39 198.027 1863.16 197.998C1883.83 197.839 1904.49 197.987 1925.16 197.878C1930.57 197.85 1935.97 197.283 1941.6 196.95C1941.6 220.047 1941.6 243.771 1941.6 267.77C1865.47 267.77 1789.56 267.77 1713.31 267.77C1713.31 228.755 1713.31 189.715 1713.31 150.174C1715.42 150.174 1717.38 150.071 1719.32 150.199C1722.01 150.375 1724.09 150.085 1725.07 146.92C1725.4 145.839 1727.44 144.59 1728.64 144.651C1730.09 144.724 1731.53 146.023 1732.87 146.942C1734.31 147.928 1735.62 150.024 1737 150.033C1764.49 150.218 1791.98 150.171 1819.78 150.171C1820.07 148.675 1820.33 147.324 1820.78 144.971C1824.13 151.665 1829.77 150.47 1834.84 150.057C1839.39 149.685 1844.67 152.188 1849.44 147.577C1855.55 151.917 1863.56 149.799 1871.26 150.061C1872.32 150.097 1873.46 148.691 1874.52 147.909C1876.06 146.785 1877.5 144.859 1879.1 144.715C1880.38 144.601 1881.84 146.661 1883.23 147.74C1884.29 148.562 1885.34 150.023 1886.44 150.059C1893.07 150.277 1899.72 150.167 1906.61 150.167C1906.81 148.399 1906.97 146.967 1907.22 144.759C1911.79 153.9 1919.48 148.867 1926.51 150.414C1926.51 141.359 1926.51 132.935 1926.51 124.013Z" fill="#0370D0"/>
<path d="M599 242.113C599 242.113 594.539 242.109 593.767 242.132C586.607 242.35 579.432 242.414 572.278 242.113C571.144 242.066 569.444 240.139 569.113 238.805C567.113 230.751 565.436 222.617 563.57 214.147C561.875 214.071 560.256 213.937 558.636 213.934C539.636 213.899 520.636 213.966 501.638 213.784C498.333 213.752 496.617 214.513 495.498 217.857C493.071 225.102 490.227 232.217 487.274 239.269C486.736 240.554 484.879 242.128 483.615 242.142C467.118 242.321 450.618 242.246 434.119 242.212C433.676 242.211 433.233 241.957 432.283 241.666C435.626 233.948 438.86 226.349 442.2 218.795C464.121 169.222 486.171 119.705 507.92 70.0559C512.71 59.1194 520.274 52.8762 532.267 52.7204C546.584 52.5343 560.906 52.6765 575.852 52.6765C577.469 59.7179 579.183 66.9303 580.776 74.1694C585.638 96.2658 590.474 118.368 595.252 140.482C595.738 142.733 614.996 236.501 615 238.805C614.5 243 609.5 242.044 599 242.113ZM518.912 157.378C516.721 163.057 514.531 168.735 512.217 174.733C526.887 174.733 540.794 174.733 554.999 174.733C549.893 151.288 544.845 128.117 539.593 104.007C532.554 122.099 525.835 139.367 518.912 157.378Z" fill="#0158A0"/>
<path d="M435.357 175.642C437.522 200.813 423.273 223.328 397.994 234.824C377.121 244.315 354.992 246.684 332.528 244.305C319.043 242.877 305.776 239.383 292.419 236.78C288.628 236.042 287.598 234.168 288.462 230.059C290.685 219.483 292.214 208.761 294.038 198.101C294.339 196.343 294.734 194.601 294.961 193.467C305.756 196.872 315.986 201.482 326.668 203.096C338.356 204.863 350.499 204.48 362.367 203.759C367.106 203.47 372.199 200.5 376.141 197.464C383.104 192.101 383.522 182.826 376.927 177.025C371.885 172.592 365.763 169.305 359.88 165.931C351.235 160.974 341.986 156.988 333.673 151.553C294.379 125.863 308.035 85.2681 332.593 67.3987C348.013 56.179 365.6 51.1869 384.299 49.5408C404.29 47.7811 423.797 50.0404 443.132 56.9722C440.783 70.6968 438.467 84.2256 436.094 98.093C420.344 90.4993 404.208 87.5839 387.505 89.1396C381.555 89.6939 375.303 91.4706 370.073 94.3156C361.12 99.1863 360.317 108.551 368.466 114.664C375.579 119.999 383.688 124.112 391.657 128.176C402.513 133.713 413.334 139.193 422.033 147.981C429.528 155.552 434.426 164.404 435.357 175.642Z" fill="#0258A1"/>
<path d="M33.027 78.0051C64.3097 94.7051 87.9723 118.954 102.733 152.04C105.098 161.697 107.194 171.098 109.484 181.37C110.808 178.161 111.902 175.62 112.911 173.044C128.116 134.212 143.345 95.3884 158.438 56.5121C159.627 53.4479 160.959 52.1822 164.467 52.2362C179.79 52.4722 195.118 52.3327 210.445 52.3465C211.719 52.3476 212.993 52.4757 214.879 52.578C210.453 62.9142 206.238 72.8015 201.988 82.6739C179.711 134.421 157.393 186.15 135.224 237.942C133.923 240.983 132.568 242.161 129.137 242.113C113.981 241.903 98.8163 241.89 83.6612 242.164C79.806 242.233 78.2585 241.15 77.223 237.398C62.5904 184.379 47.787 131.408 33.027 78.0051Z" fill="#0258A0"/>
<path d="M1471.77 219.971C1473.17 242.334 1453.06 264.607 1429.74 265.437C1410.77 266.112 1391.76 265.578 1372.77 265.559C1372.3 265.558 1371.84 265.314 1371.17 265.127C1371.17 233.712 1371.17 202.317 1371.17 170.05C1380.86 178.87 1392.23 179.14 1403.83 178.977C1418.82 178.766 1433.82 178.926 1448.81 178.926C1450.44 178.926 1452.07 178.926 1453.93 178.926C1453.93 175.073 1453.93 171.672 1453.93 168.654C1442.79 169.785 1431.92 171.433 1421 171.872C1404.53 172.532 1391.73 159.876 1392.1 144.198C1392.48 128.144 1405.86 116.082 1422.48 117.442C1432.89 118.294 1443.22 120.056 1453.89 121.449C1453.99 120.384 1454.11 119.101 1454.65 117.551C1455.38 117.998 1455.85 118.689 1455.96 119.434C1457.54 129.366 1459.05 139.307 1460.59 149.244C1462.72 162.927 1464.85 176.611 1467.01 190.29C1468.58 200.187 1470.18 210.077 1471.77 219.971Z" fill="#730C1F"/>
<path d="M1358.68 28.9932C1358.75 30.1518 1358.88 31.3104 1358.88 32.469C1358.88 93.0222 1358.87 153.575 1358.62 214.717C1358.18 215.539 1358.02 215.79 1357.64 215.771C1356.41 209.63 1355.4 203.784 1354.46 197.926C1351.62 180.181 1348.88 162.419 1345.94 144.689C1344.25 134.461 1342.25 124.282 1340.39 114.081C1340.3 112.806 1340.21 111.531 1340.12 110.201C1328.35 110.201 1316.76 110.201 1304.76 110.201C1304.76 122.912 1304.61 135.358 1304.81 147.798C1304.97 157.831 1301.76 165.947 1292.23 170.204C1282.21 174.683 1272.69 172.977 1264.22 166.117C1259.6 162.382 1257.23 157.562 1257.27 151.357C1257.42 125.559 1257.34 99.7599 1257.78 73.4306C1284.8 60.9794 1311.36 48.9962 1337.99 37.1818C1344.76 34.1767 1351.78 31.7083 1358.68 28.9932Z" fill="#10559D"/>
<path d="M214.99 175.002C222.002 133.827 228.978 93.0852 235.961 52.3002C253.292 52.3002 270.076 52.3002 287.701 52.3002C276.899 115.654 266.142 178.749 255.364 241.96C238.034 241.96 221.125 241.96 203.604 241.96C207.426 219.56 211.189 197.497 214.99 175.002Z" fill="#0258A1"/>
<path d="M912.03 131.18C912.06 117.31 916.21 104.304 921.373 91.7522C928.035 75.5547 936.952 60.579 949.458 48.0337C950.607 46.8808 952.02 45.9907 953.654 44.9116C968.976 59.6486 979.731 77.1545 986.799 96.9034C989.186 103.573 990.771 110.53 992.75 118.026C990.516 123.46 988.256 128.224 985.559 132.903C984.844 129.716 984.565 126.613 984.167 122.164C979.672 124.107 975.658 125.842 971.671 127.565C971.413 126.384 971.079 124.851 970.819 123.658C966.353 123.658 962.29 123.658 958.304 123.658C958.304 139.135 958.304 154.205 958.304 169.477C962.966 169.477 967.362 169.477 972.183 169.477C972.183 161.264 972.14 153.315 972.197 145.368C972.24 139.321 974.357 136.97 980.34 136.195C981.974 135.983 983.635 135.979 985.2 136.267C985.15 137.442 985.183 138.229 985.14 139.257C985.117 139.657 985.169 139.817 985.152 140.389C985.126 149.589 989.316 156.463 995.132 162.586C991.77 188.074 983.501 211.704 968.182 232.549C963.762 238.565 958.713 244.118 953.855 250.187C953.404 250.626 953.051 250.762 952.419 250.941C947.676 245.081 943.178 239.204 938.756 233.27C923.885 213.31 915.046 190.933 911.962 166.254C911.737 164.457 911.357 162.679 911.34 160.628C918.416 169.145 927.325 172.379 938.064 169.936C945.723 168.193 950.993 163.413 953.684 155.366C947.692 155.666 941.898 156.349 936.377 157.961C929.868 159.862 923.545 157.331 921.667 151.054C933.007 151.054 944.271 151.054 955.47 151.054C959.114 135.762 945.979 121.376 930.048 122.525C922.754 123.052 917.413 127.007 912.03 131.18Z" fill="#C80402"/>
<path d="M1340.3 114.539C1342.25 124.282 1344.25 134.461 1345.94 144.689C1348.88 162.419 1351.62 180.181 1354.46 197.926C1355.4 203.784 1356.41 209.63 1357.66 216.116C1358.23 217.79 1358.51 218.83 1358.79 219.871C1358.38 223.759 1358.45 227.775 1357.46 231.511C1354.19 243.879 1346.52 253.026 1335.62 259.514C1328.6 263.694 1320.98 265.682 1312.76 265.635C1296.1 265.539 1279.43 265.607 1262.77 265.608C1261.14 265.608 1259.51 265.608 1257.59 265.608C1257.59 235.386 1257.59 205.678 1257.59 175.657C1261.65 177.625 1265.35 179.847 1269.33 181.275C1290.15 188.745 1309.72 185.552 1327.75 173.237C1336.23 167.443 1340.47 159.082 1340.23 148.49C1339.98 137.331 1340.19 126.161 1340.3 114.539Z" fill="#043960"/>
<path d="M1586.41 219.91C1587.9 236.604 1576.38 254.597 1558.96 261.794C1553.99 263.85 1548.41 265.304 1543.07 265.436C1525.09 265.882 1507.09 265.613 1489.11 265.594C1488.14 265.593 1487.18 265.383 1486.04 265.249C1486.04 236.606 1486.04 208.154 1486.04 178.928C1487.7 178.928 1489.44 178.928 1491.18 178.928C1511 178.928 1530.83 179.217 1550.64 178.727C1555.69 178.602 1561.45 177.134 1565.52 174.318C1575.52 167.409 1573.12 152.176 1561.79 146.981C1560.14 146.226 1558.43 145.604 1555.98 144.61C1563.67 142.412 1568.05 137.756 1570.27 130.674C1575.9 160.385 1581.16 190.147 1586.41 219.91Z" fill="#156744"/>
<path d="M1586.55 219.466C1581.16 190.147 1575.9 160.385 1570.4 130.336C1569.94 116.358 1563.49 109.95 1549.87 109.94C1528.77 109.925 1507.66 109.936 1486.04 109.936C1486.04 97.3936 1486.04 85.1634 1486.59 72.4782C1488.25 71.7535 1489.44 71.6505 1490.47 71.19C1516.82 59.4052 1543.16 47.6101 1569.48 35.7443C1574.72 33.3795 1579.83 30.7188 1585.01 28.1945C1585.58 29.4454 1586.62 30.6852 1586.65 31.9492C1586.81 38.7631 1586.73 45.5831 1586.72 52.4009C1586.71 107.941 1586.7 163.482 1586.55 219.466Z" fill="#349A49"/>
<path d="M1471.89 219.517C1470.18 210.077 1468.58 200.187 1467.01 190.29C1464.85 176.611 1462.72 162.927 1460.59 149.244C1459.05 139.308 1457.54 129.366 1455.96 119.434C1455.85 118.689 1455.38 117.998 1454.73 117.143C1454.25 114.857 1454.1 112.71 1453.91 109.932C1452.18 109.932 1450.4 109.932 1448.62 109.932C1433.45 109.932 1418.28 110.141 1403.12 109.863C1391.8 109.655 1380.8 110.059 1370.99 119.207C1370.99 103.082 1370.99 88.4953 1371.43 73.4016C1387.96 65.7257 1404.07 58.6095 1420.13 51.3745C1437.09 43.7334 1454 35.9793 1470.94 28.2745C1471.29 29.9133 1471.95 31.5519 1471.95 33.1911C1472 95.1486 1472 157.106 1471.89 219.517Z" fill="#B42137"/>
<path d="M1358.53 28.6103C1351.78 31.7083 1344.76 34.1767 1337.99 37.1818C1311.36 48.9962 1284.8 60.9794 1257.89 72.9806C1256.08 49.4425 1273.34 29.3569 1297.48 28.3058C1317.74 27.4238 1338.08 28.1905 1358.53 28.6103Z" fill="#1A76CB"/>
<path d="M1470.49 28.1566C1454 35.9793 1437.09 43.7334 1420.13 51.3745C1404.07 58.6095 1387.96 65.7258 1371.52 72.9404C1370.11 47.66 1387.99 28.518 1413.6 28.0918C1432.41 27.7787 1451.22 28.0357 1470.49 28.1566Z" fill="#E21039"/>
<path d="M1584.54 28.1115C1579.83 30.7188 1574.72 33.3795 1569.48 35.7443C1543.16 47.6101 1516.82 59.4052 1490.47 71.19C1489.44 71.6505 1488.25 71.7536 1486.77 72.0445C1485.6 47.5122 1503.62 28.5513 1528.71 28.0999C1547.16 27.7679 1565.62 28.0307 1584.54 28.1115Z" fill="#1DCC3A"/>
<path d="M1521.94 146.994C1524.42 146.998 1526.43 146.92 1528.42 147.021C1534.81 147.345 1540.22 152.694 1540.45 158.837C1540.67 164.742 1535.92 170.807 1529.65 171.185C1521.07 171.704 1512.42 171.315 1503.48 171.315C1503.48 163.214 1503.48 155.349 1503.48 146.994C1509.56 146.994 1515.5 146.994 1521.94 146.994Z" fill="#176846"/>
<path d="M1517 117.15C1520.81 117.156 1524.14 117.03 1527.45 117.193C1534.44 117.537 1539.97 123.106 1539.94 129.579C1539.9 136.267 1534.62 141.027 1527.04 141.084C1519.27 141.142 1511.5 141.097 1503.44 141.097C1503.44 133.157 1503.44 125.587 1503.44 117.15C1507.71 117.15 1512.11 117.15 1517 117.15Z" fill="#196947"/>
<path d="M1745.97 143.919C1745.97 135.613 1745.97 127.307 1745.97 118.343C1748.85 118.343 1751.67 118.03 1754.36 118.485C1755.56 118.688 1756.95 120.248 1757.48 121.516C1759.25 125.808 1760.67 130.244 1762.55 135.554C1764.12 131.272 1765.87 127.877 1766.57 124.278C1767.57 119.064 1770.38 117.42 1775.28 118.263C1776.41 118.457 1777.58 118.422 1779.03 118.51C1779.03 127.399 1779.03 136.156 1779.03 145.307C1777.12 145.307 1775.23 145.307 1772.62 145.307C1772.62 140.054 1772.62 134.742 1772.62 129.43C1772.21 129.377 1771.8 129.325 1771.39 129.272C1769.79 133.724 1768.4 138.272 1766.46 142.572C1765.84 143.951 1763.82 145.359 1762.33 145.48C1761.15 145.576 1759.22 143.992 1758.66 142.701C1756.75 138.364 1755.3 133.823 1752.7 129.472C1752.7 134.623 1752.7 139.774 1752.7 145.423C1750.22 145.423 1748.32 145.423 1746.22 144.875C1746.02 144.326 1745.97 143.919 1745.97 143.919Z" fill="#0B75D2"/>
<path d="M1896 144.007C1896 135.696 1896 127.384 1896 118.844C1900.89 117.523 1904.88 117.64 1907.48 123.087C1909.24 126.786 1911.87 130.072 1914.88 134.728C1914.88 128.635 1914.88 123.81 1914.88 118.637C1917.36 118.637 1919.28 118.637 1921.6 118.637C1921.6 127.36 1921.6 136.231 1921.6 145.227C1916.5 146.771 1912.77 145.694 1910.27 140.51C1908.5 136.865 1905.93 133.615 1902.76 130.422C1902.76 135.282 1902.76 140.142 1902.76 145.406C1900.29 145.406 1898.38 145.406 1896.23 144.908C1896 144.41 1896 144.007 1896 144.007Z" fill="#0F77D3"/>
<path d="M1802.62 145.714C1796.35 145.715 1790.53 145.715 1784.32 145.715C1784.32 136.559 1784.32 127.698 1784.32 118.554C1791.45 118.554 1798.52 118.554 1805.78 118.554C1805.78 120.471 1805.78 122.099 1805.78 124.549C1801.99 124.549 1798.24 124.662 1794.51 124.514C1791.42 124.391 1790.13 125.401 1791.39 129.008C1795.86 129.008 1800.45 129.008 1805.31 129.008C1805.31 131.071 1805.31 132.662 1805.31 134.756C1800.69 134.756 1796.11 134.756 1791.22 134.756C1791.22 136.613 1791.22 137.969 1791.22 139.667C1796.18 139.667 1800.81 139.667 1805.81 139.667C1805.41 142.224 1807.93 145.497 1802.62 145.714Z" fill="#1078D3"/>
<path d="M1877.95 187.107C1882.59 187.17 1886.73 187.17 1891.19 187.17C1891.19 189.293 1891.19 191.01 1891.19 192.938C1884.01 192.938 1877.07 192.938 1869.76 192.938C1869.76 184.124 1869.76 175.402 1869.76 166.327C1876.79 166.327 1883.84 166.327 1891.22 166.327C1891.22 168.021 1891.22 169.756 1891.22 172.028C1886.38 172.028 1881.63 172.028 1876.86 172.028C1875.36 177.787 1879.25 176.598 1881.9 176.704C1884.72 176.817 1887.54 176.729 1890.69 176.729C1890.69 178.672 1890.69 180.385 1890.69 182.549C1886.97 182.549 1883.33 182.535 1879.69 182.552C1876.02 182.57 1875.43 184.16 1877.95 187.107Z" fill="#0C75D2"/>
<path d="M1856.75 189.39C1854.48 187.101 1852.43 185.112 1850.39 183.123C1849.94 183.475 1849.5 183.826 1849.06 184.178C1849.06 186.96 1849.06 189.743 1849.06 192.827C1846.81 192.827 1844.9 192.827 1842.58 192.827C1842.58 184.176 1842.58 175.469 1842.58 166.19C1848.17 166.19 1853.94 165.84 1859.63 166.314C1863.38 166.627 1865.9 169.374 1866.59 173.202C1867.26 177.005 1865.82 180.042 1862.51 182.118C1861.71 182.618 1860.87 183.047 1859.81 183.645C1862.38 186.632 1864.81 189.456 1867.58 192.671C1862.94 193.554 1859.29 193.845 1856.75 189.39ZM1859.81 175.396C1857.84 169.127 1852.99 173.265 1849.37 172.001C1849.37 174.256 1849.37 175.95 1849.37 178.776C1853.14 177.8 1856.33 176.975 1859.81 175.396Z" fill="#0B74D2"/>
<path d="M1824.25 141.831C1822.14 139.46 1820.27 137.375 1818.4 135.29C1817.89 135.557 1817.38 135.824 1816.88 136.091C1816.69 139.1 1816.51 142.11 1816.31 145.39C1814.14 145.39 1812.25 145.39 1810.07 145.39C1810.07 136.486 1810.07 127.758 1810.07 118.509C1815.5 118.509 1820.91 118.27 1826.29 118.588C1830.3 118.825 1833.15 121.215 1833.91 125.289C1834.68 129.436 1833.29 132.815 1829.38 134.872C1828.84 135.156 1828.3 135.44 1827.28 135.972C1829.95 139.092 1832.37 141.93 1835.25 145.296C1830.62 146.021 1826.85 146.534 1824.25 141.831ZM1822.35 130.164C1824.69 130.115 1828.16 129.849 1826.81 127.001C1825.98 125.255 1821.65 124.48 1818.9 124.493C1814.57 124.512 1816.78 127.717 1816.75 130.164C1818.54 130.164 1820.01 130.164 1822.35 130.164Z" fill="#0D76D2"/>
<path d="M1895.65 144.2C1896 144.007 1896 144.41 1896.01 144.508C1892 145.743 1887.71 148.083 1885.63 141.71C1885.37 140.913 1883.5 140.087 1882.47 140.19C1878.19 140.616 1872.64 137.708 1870.53 144.762C1870.24 145.728 1866.18 145.566 1862.86 146.084C1866.86 136.679 1870.19 128.217 1874.19 120.084C1874.85 118.742 1878.46 118.392 1880.68 118.445C1882.02 118.476 1883.93 119.886 1884.53 121.169C1887.54 127.622 1890.18 134.252 1893.03 140.782C1893.6 142.07 1894.53 143.194 1895.65 144.2ZM1881.59 131.304C1880.77 129.528 1879.95 127.752 1878.73 125.114C1877.39 128.633 1876.48 131.036 1875.57 133.439C1875.84 133.902 1876.11 134.365 1876.38 134.828C1878.21 133.916 1880.05 133.004 1881.59 131.304Z" fill="#0D76D2"/>
<path d="M1745.62 144.117C1745.97 143.919 1746.02 144.326 1746.04 144.53C1741.8 145.83 1737.24 147.864 1735.43 141.318C1731 141.416 1724.07 139.853 1722.67 141.962C1719.88 146.157 1717.29 145.775 1713.1 145.394C1716.8 136.687 1720.12 128.218 1724.11 120.078C1724.76 118.739 1728.37 118.391 1730.59 118.445C1731.93 118.477 1733.84 119.883 1734.44 121.164C1737.46 127.626 1740.1 134.265 1742.97 140.802C1743.53 142.066 1744.49 143.148 1745.62 144.117ZM1729.74 126.888C1729.16 126.888 1728.17 126.708 1728.08 126.914C1727.15 129.11 1726.36 131.367 1725.41 133.919C1728.01 133.919 1729.93 133.919 1732.44 133.919C1731.52 131.553 1730.77 129.589 1729.74 126.888Z" fill="#0D76D2"/>
<path d="M1778.64 182.523C1775.37 182.523 1772.54 182.523 1769.2 182.523C1769.12 184.052 1769.04 185.389 1768.94 187.128C1773.98 187.128 1778.59 187.128 1783.7 187.128C1783.79 189.173 1783.87 190.871 1783.96 192.863C1776.53 192.863 1769.47 192.863 1762.19 192.863C1762.19 183.909 1762.19 175.185 1762.19 166.234C1769.48 166.234 1776.54 166.234 1783.78 166.234C1783.78 168.097 1783.78 169.714 1783.78 171.834C1779.08 171.834 1774.34 171.834 1769.67 171.834C1768.21 175.208 1768.49 176.97 1772.31 176.821C1775.79 176.685 1779.28 176.792 1782.91 176.792C1784.41 180.775 1783.85 183.047 1778.64 182.523Z" fill="#0873D1"/>
<path d="M1912.67 165.98C1914.28 165.98 1915.44 165.98 1916.64 165.98C1916.48 171.097 1913.84 172.737 1909.23 172.14C1907.43 171.906 1905.51 171.816 1903.77 172.215C1902.58 172.488 1901.61 173.722 1900.55 174.526C1901.67 175.277 1902.72 176.443 1903.95 176.682C1905.87 177.058 1907.93 176.721 1909.91 176.842C1914.87 177.142 1917.8 180.112 1917.78 184.675C1917.75 189.42 1914.58 192.761 1909.74 193.101C1908.58 193.183 1907.41 193.141 1906.25 193.142C1902.6 193.146 1898.94 193.143 1894.93 193.143C1894.93 191.209 1894.93 189.497 1894.93 187.192C1899.17 187.192 1903.29 187.347 1907.38 187.094C1908.53 187.022 1909.62 185.76 1910.74 185.044C1909.62 184.325 1908.59 183.226 1907.38 182.979C1905.62 182.62 1903.73 182.971 1901.91 182.85C1896.96 182.52 1894.25 180.05 1893.87 175.677C1893.43 170.654 1895.77 167.133 1900.77 166.38C1904.52 165.815 1908.4 166.083 1912.67 165.98Z" fill="#0B74D2"/>
<path d="M1939.62 171.109C1935.96 171.673 1932.5 171.712 1929.1 172.188C1927.72 172.381 1926.48 173.527 1925.17 174.239C1926.53 175.088 1927.79 176.279 1929.27 176.691C1930.82 177.12 1932.57 176.737 1934.23 176.816C1939.53 177.07 1942.09 179.512 1942.21 184.327C1942.35 189.648 1939.53 192.886 1934.24 193.076C1929.45 193.248 1924.64 193.112 1919.48 193.112C1919.48 191.154 1919.48 189.457 1919.48 187.195C1923.69 187.195 1927.81 187.345 1931.91 187.098C1933.05 187.029 1934.13 185.788 1935.23 185.085C1934.16 184.352 1933.18 183.223 1932 182.979C1930.25 182.613 1928.36 182.972 1926.54 182.841C1921.55 182.479 1918.62 179.714 1918.28 175.192C1917.95 170.732 1920.94 166.77 1925.88 166.308C1930.98 165.832 1936.15 166.202 1941.75 166.202C1941.07 167.826 1940.46 169.292 1939.62 171.109Z" fill="#0A74D2"/>
<path d="M1814.94 185.935C1814.94 179.16 1814.94 172.878 1814.94 166.157C1820.79 166.157 1826.4 165.818 1831.94 166.263C1836.45 166.626 1839.31 170.316 1839.38 174.849C1839.45 179.533 1837.35 182.977 1832.65 184.018C1829.32 184.757 1825.83 184.784 1822 185.17C1822 187.631 1822 190.05 1822 192.804C1819.55 192.804 1817.5 192.804 1814.94 192.804C1814.94 190.651 1814.94 188.54 1814.94 185.935ZM1829 178.338C1830.15 177.079 1831.29 175.819 1832.43 174.56C1829.21 173.439 1825.99 172.319 1822.3 171.034C1822.3 174.474 1822.3 176.32 1822.3 178.358C1824.5 178.358 1826.31 178.358 1829 178.338Z" fill="#0873D1"/>
<path d="M1788.94 187.917C1791.11 185.162 1793.07 182.695 1795.33 179.852C1791.93 175.441 1788.55 171.056 1785.12 166.611C1793.15 163.356 1795.69 169.914 1799.52 174.286C1803.41 170.02 1805.64 163.271 1813.64 166.607C1810.29 170.915 1806.97 175.185 1803.52 179.618C1806.89 183.962 1810.11 188.125 1813.38 192.347C1805.49 195.938 1803.08 189.597 1799.43 185.075C1795.65 189.073 1793.47 195.959 1785.57 192.493C1786.63 191.05 1787.68 189.627 1788.94 187.917Z" fill="#0974D2"/>
<path d="M1848.46 139.205C1843.67 124.292 1851.51 116.057 1867.6 118.864C1867.6 120.585 1867.6 122.356 1867.6 124.94C1865.77 124.94 1863.86 125.046 1861.97 124.919C1857.46 124.617 1854.54 126.32 1853.98 131.049C1853.41 135.802 1855.3 138.353 1860.17 139.546C1860.78 139.696 1861.4 139.842 1862.01 139.99C1860.38 146.189 1857.18 147.386 1852.2 143.635C1850.79 142.572 1849.82 140.926 1848.46 139.205Z" fill="#0F77D2"/>
<path d="M1836.87 129.027C1836.87 125.385 1836.87 122.238 1836.87 118.678C1839.13 118.678 1841.15 118.678 1843.52 118.678C1843.52 127.424 1843.52 136.147 1843.52 145.295C1841.56 145.295 1839.52 145.295 1836.87 145.295C1836.87 140.036 1836.87 134.779 1836.87 129.027Z" fill="#1178D3"/>
<path d="M1358.86 219.476C1358.51 218.83 1358.23 217.79 1357.92 216.405C1358.02 215.79 1358.18 215.539 1358.55 215.186C1358.8 216.404 1358.87 217.743 1358.86 219.476Z" fill="#1A76CB"/>
<path d="M985.216 139.017C985.183 138.229 985.15 137.442 985.42 136.048C985.814 134.623 985.905 133.805 985.996 132.987C988.256 128.224 990.516 123.46 992.907 118.385C1007.92 103.105 1028.17 106.101 1038.97 116.161C1043.43 120.312 1046.69 125.156 1048.19 131.842C1042.96 131.842 1038.19 131.986 1033.44 131.742C1032.24 131.68 1030.84 130.604 1029.96 129.613C1023.26 122.033 1013.11 121.185 1006.06 127.732C999.431 133.883 999.338 144.008 1005.85 150.443C1012.66 157.175 1022.95 156.574 1029.76 149.191C1030.75 148.12 1032.35 147.079 1033.73 146.998C1038.37 146.727 1043.03 146.895 1048.28 146.895C1045.3 157.466 1039.09 164.623 1029.46 168.456C1017.26 173.311 1005.96 171.062 995.454 162.743C989.316 156.463 985.126 149.589 985.29 140.297C985.679 139.458 985.585 139.199 985.216 139.017Z" fill="#FFFDFB"/>
<path d="M1178.38 142C1178.38 151.448 1178.38 160.396 1178.38 170.143C1173.28 168.404 1167.91 172.522 1164 167.126C1151.85 172.796 1142.57 171.381 1135.4 162.687C1128.03 153.752 1127.62 140.816 1134.4 131.674C1141.18 122.542 1151.01 120.365 1163.92 125.444C1163.92 120.097 1163.92 114.912 1163.92 109.358C1168.81 109.358 1173.2 109.358 1178.38 109.358C1178.38 120.014 1178.38 130.757 1178.38 142ZM1164.97 145.704C1163.21 139.215 1159.6 135.997 1154.16 136.081C1149.32 136.156 1145.07 139.495 1144.01 144.058C1142.64 149.921 1146.22 155.593 1152.09 156.867C1158.57 158.272 1163.72 154.129 1164.97 145.704Z" fill="#FFFDFC"/>
<path d="M1064.03 169.193C1054.39 164.637 1049.33 157.134 1049.08 147.014C1048.84 137.53 1052.87 129.536 1061.53 125.321C1065.72 123.281 1071.52 121.951 1075.76 123.175C1083.19 125.322 1090.27 121.322 1097.71 123.758C1097.71 138.755 1097.71 153.966 1097.71 169.852C1092.86 168.712 1087.5 172.131 1083.13 167.017C1077.42 170.541 1071.16 172.062 1064.03 169.193ZM1081.95 153.424C1085.56 147.614 1085.2 142.41 1080.92 138.679C1076.86 135.135 1070.79 135.147 1066.79 138.706C1062.39 142.608 1061.87 148.505 1065.52 152.997C1069.54 157.935 1075.25 158.29 1081.95 153.424Z" fill="#FFFDFB"/>
<path d="M1117.47 127.899C1121.34 125.934 1124.8 124 1129.38 121.442C1129.38 127.396 1129.38 131.442 1129.38 135.793C1127.96 135.931 1126.51 136.003 1125.08 136.225C1119.5 137.092 1117.59 139.175 1117.53 144.829C1117.44 152.953 1117.51 161.078 1117.51 169.493C1112.51 169.493 1108.1 169.493 1103.37 169.493C1103.37 154.255 1103.37 139.164 1103.37 123.64C1107.34 123.64 1111.41 123.64 1115.85 123.64C1116.2 124.873 1116.63 126.401 1117.47 127.899Z" fill="#FEFBF7"/>
<path d="M1183.65 165.089C1185.5 165.316 1186.95 165.524 1189.36 165.871C1188.74 167.083 1188.18 169.392 1187.41 169.468C1185.74 169.629 1183.97 168.636 1181.98 168.035C1182.11 167.763 1181.68 168.661 1180.79 170.516C1180.01 167.038 1178.75 164.489 1183.65 165.089Z" fill="#F8D2AB"/>
<path d="M786.749 169.74C782.815 169.739 779.35 169.739 775.515 169.739C775.515 157.385 775.515 145.471 775.515 133.556C775.187 133.479 774.858 133.402 774.53 133.326C773.403 136.57 772.264 139.811 771.15 143.06C768.513 150.756 765.64 158.385 763.368 166.188C762.338 169.726 760.264 170.1 757.449 169.715C754.53 169.315 750.906 171.437 749.426 166.354C746.597 156.634 743.116 147.105 739.899 137.498C739.506 136.324 739.075 135.163 737.79 134.154C737.79 145.812 737.79 157.47 737.79 169.431C732.963 169.431 728.548 169.431 723.776 169.431C723.776 149.499 723.776 129.59 723.776 109.017C730.034 109.017 736.295 108.827 742.524 109.193C743.631 109.258 745.055 111.48 745.565 112.969C749.301 123.877 752.843 134.852 756.746 146.721C761.037 133.627 765.048 121.389 769.064 109.134C776.056 109.134 782.697 109.134 789.665 109.134C789.81 110.241 790.075 111.331 790.077 112.42C790.102 130.081 790.106 147.741 790.075 165.401C790.071 167.395 790.91 170.105 786.749 169.74Z" fill="#FFF8F8"/>
<path d="M842.261 137.007C842.261 148.094 842.261 158.683 842.261 170.061C837.139 168.489 831.832 172.364 827.817 167.133C814.701 172.797 805.598 171.09 798.406 161.498C791.554 152.358 791.696 139.933 798.756 130.964C805.626 122.235 816.05 120.205 827.389 125.388C827.347 124.895 827.305 124.403 827.263 123.911C832.064 123.59 836.864 123.269 842.261 122.909C842.261 127.953 842.261 132.231 842.261 137.007ZM824.339 155.077C829.354 150.206 830.247 145.8 827.192 140.998C824.503 136.77 819.261 134.976 814.561 136.674C808.88 138.726 805.943 144.968 808.242 150.448C810.547 155.939 817.939 159.257 824.339 155.077Z" fill="#FFFBFA"/>
<path d="M912.016 131.397C917.413 127.007 922.754 123.052 930.048 122.525C945.979 121.376 959.115 135.762 955.47 151.054C944.271 151.054 933.007 151.054 921.667 151.054C923.545 157.331 929.868 159.862 936.377 157.961C941.899 156.349 947.692 155.666 953.684 155.366C950.993 163.413 945.723 168.193 938.064 169.936C927.325 172.379 918.416 169.145 911.342 160.209C906.381 151.307 905.638 142.544 911.255 133.314C911.877 132.648 911.959 132.358 911.796 131.999C911.796 131.999 912.001 131.614 912.016 131.397ZM924.155 141.026C930.026 141.026 935.897 141.026 942.181 141.026C937.594 133.945 928.536 132.865 923.513 138.284C923.027 138.809 923.353 140.087 924.155 141.026Z" fill="#FEFBFB"/>
<path d="M880.852 133.946C880.855 134.771 881.21 135.934 880.799 136.361C879.162 138.061 868.771 136.697 867.103 135.01C866.078 133.974 864.508 133.06 863.122 132.963C862.344 132.909 860.588 134.865 860.765 135.503C861.193 137.05 862.19 139 863.508 139.621C866.173 140.878 869.25 141.224 872.072 142.193C877.775 144.153 882.193 147.427 882.582 154.069C882.964 160.609 879.813 165.206 874.204 168.215C863.203 174.116 849.036 169.702 845.535 159.311C845.227 158.395 845.183 157.389 844.918 155.854C848.958 155.854 852.74 155.729 856.505 155.932C857.596 155.991 858.618 157.026 859.705 157.546C861.461 158.386 863.195 159.531 865.043 159.782C865.681 159.869 867.554 157.053 867.272 156.634C866.197 155.038 864.644 153.56 862.943 152.644C861.234 151.724 859.118 151.586 857.214 150.999C849.964 148.766 846.479 144.84 846.104 138.568C845.723 132.215 849.53 126.668 856.129 123.959C865.604 120.071 874.972 122.982 879.97 131.989C880.286 133.061 880.569 133.504 880.852 133.946Z" fill="#FFFAF9"/>
<path d="M881.319 133.897C880.569 133.504 880.286 133.061 879.991 132.343C880.577 129.342 881.176 126.617 881.876 123.426C882.904 123.251 884.473 122.984 886.542 122.632C886.542 118.294 886.542 113.886 886.542 109.239C891.456 109.239 895.863 109.239 900.763 109.239C900.763 113.787 900.763 118.202 900.763 122.908C902.964 123.049 904.705 123.16 906.674 123.286C906.674 126.824 906.674 130.084 906.674 133.697C904.961 133.869 903.214 134.044 901.023 134.263C901.023 145.794 901.023 157.37 901.023 169.346C896.059 169.346 891.529 169.346 886.529 169.346C886.529 157.711 886.529 146.14 886.529 134.307C884.664 134.127 883.225 133.988 881.319 133.897Z" fill="#FFF5F4"/>
<path d="M911.626 132.133C911.959 132.358 911.877 132.648 911.321 132.954C911.141 132.748 911.262 132.49 911.626 132.133Z" fill="#C80402"/>
<path d="M985.559 132.903C985.905 133.805 985.814 134.623 985.503 135.661C983.635 135.979 981.974 135.983 980.34 136.195C974.358 136.97 972.24 139.321 972.197 145.368C972.14 153.315 972.183 161.264 972.183 169.477C967.362 169.477 962.966 169.477 958.304 169.477C958.304 154.205 958.304 139.135 958.304 123.658C962.29 123.658 966.353 123.658 970.819 123.658C971.079 124.851 971.413 126.384 971.671 127.565C975.658 125.842 979.672 124.107 984.167 122.164C984.565 126.613 984.844 129.716 985.559 132.903Z" fill="#FEF7F6"/>
<path d="M985.14 139.257C985.585 139.199 985.679 139.458 985.358 139.885C985.169 139.817 985.117 139.657 985.14 139.257Z" fill="#FEF7F6"/>
<path d="M1164.98 146.103C1163.72 154.129 1158.57 158.272 1152.09 156.867C1146.22 155.593 1142.64 149.921 1144.01 144.058C1145.07 139.495 1149.32 136.156 1154.16 136.081C1159.6 135.997 1163.21 139.215 1164.98 146.103Z" fill="#E97D06"/>
<path d="M1081.7 153.705C1075.25 158.29 1069.54 157.935 1065.52 152.997C1061.87 148.505 1062.39 142.608 1066.79 138.706C1070.79 135.147 1076.86 135.135 1080.92 138.679C1085.2 142.41 1085.56 147.614 1081.7 153.705Z" fill="#E97D07"/>
<path d="M824.028 155.312C817.939 159.257 810.546 155.939 808.242 150.448C805.943 144.968 808.88 138.726 814.561 136.674C819.261 134.976 824.503 136.77 827.192 140.998C830.247 145.8 829.354 150.206 824.028 155.312Z" fill="#FF0D0D"/>
<path d="M923.729 141.021C923.353 140.087 923.027 138.809 923.513 138.284C928.536 132.865 937.594 133.945 942.181 141.026C935.897 141.026 930.026 141.026 923.729 141.021Z" fill="#C90A08"/>
</svg>
