<svg version="1.1" id="Layer_1" xmlns="http://www.w3.org/2000/svg" xmlns:xlink="http://www.w3.org/1999/xlink" x="0px" y="0px"
	 width="100%" viewBox="0 0 1944 340" enable-background="new 0 0 1944 340" xml:space="preserve">
<path fill="#FEFEFF" opacity="1.000000" stroke="none" 
	d="
M1.000000,76.000000 
	C1.000000,51.002262 1.000000,26.004520 1.000000,1.005086 
	C648.939148,1.003391 1296.878296,1.003391 1944.908691,1.003391 
	C1944.908691,114.262169 1944.908691,227.524445 1944.908691,340.893372 
	C1297.000000,340.893372 649.000000,340.893372 1.000003,340.891235 
	C1.000000,256.563385 1.000000,172.237640 1.377842,87.460121 
	C12.513452,91.867279 23.271217,96.726212 34.026955,102.005157 
	C48.786957,155.407852 63.590363,208.379105 78.222939,261.397522 
	C79.258476,265.149628 80.806000,266.233124 84.661209,266.163605 
	C99.816277,265.890381 114.980553,265.902985 130.137192,266.113068 
	C133.567566,266.160583 134.922562,264.982666 136.223923,261.942383 
	C158.393204,210.149704 180.710815,158.420532 202.987625,106.673882 
	C207.237656,96.801514 211.452927,86.914185 215.879410,76.577972 
	C213.992950,76.475670 212.718903,76.347610 211.444763,76.346466 
	C196.118423,76.332680 180.790009,76.472214 165.467285,76.236252 
	C161.959320,76.182236 160.627335,77.447929 159.437744,80.512077 
	C144.344894,119.388359 129.115753,158.211731 113.910675,197.044418 
	C112.902344,199.619629 111.807579,202.160995 110.484184,205.369965 
	C108.194031,195.097519 106.098228,185.696808 103.999664,175.865082 
	C98.294815,147.762100 92.689903,120.069550 86.833786,92.430222 
	C84.982025,83.690361 78.985718,78.743111 70.352234,77.125084 
	C66.941032,76.485779 63.414574,76.234344 59.937763,76.209953 
	C40.292320,76.072151 20.646013,76.056969 1.000000,76.000000 
M1897.466064,169.405594 
	C1899.378540,169.405594 1901.291138,169.405594 1903.756104,169.405594 
	C1903.756104,164.141830 1903.756104,159.281799 1903.756104,154.421768 
	C1906.925293,157.615158 1909.504517,160.865036 1911.266846,164.509857 
	C1913.773926,169.694321 1917.501099,170.771057 1922.598022,169.227325 
	C1922.598022,160.231369 1922.598022,151.359650 1922.598022,142.636810 
	C1920.280518,142.636810 1918.364502,142.636810 1915.881104,142.636810 
	C1915.881104,147.810257 1915.881104,152.634796 1915.881104,158.728226 
	C1912.872314,154.071579 1910.241821,150.786316 1908.479614,147.087311 
	C1905.884644,141.640167 1901.890747,141.522583 1897.001099,142.844116 
	C1897.001099,151.384216 1897.001099,159.695633 1896.294189,168.393631 
	C1895.530762,167.194016 1894.595093,166.069641 1894.032349,164.782242 
	C1891.178467,158.251663 1888.543335,151.621780 1885.527222,145.168945 
	C1884.927490,143.886032 1883.016724,142.476151 1881.679199,142.444580 
	C1879.456055,142.392120 1875.851929,142.741577 1875.192017,144.083664 
	C1871.192505,152.216644 1867.862427,160.678864 1863.860718,170.083847 
	C1867.181641,169.566483 1871.242676,169.728149 1871.531616,168.761887 
	C1873.640991,161.707809 1879.185181,164.616089 1883.472168,164.189529 
	C1884.503540,164.086914 1886.370728,164.912598 1886.630615,165.710007 
	C1888.707764,172.083023 1893.001099,169.743042 1897.466064,169.405594 
M1746.271606,168.314392 
	C1745.494141,167.148254 1744.525635,166.065887 1743.971191,164.801941 
	C1741.103882,158.265472 1738.464111,151.625656 1735.440674,145.164185 
	C1734.841064,143.882660 1732.930420,142.476776 1731.592651,142.444672 
	C1729.370605,142.391357 1725.764771,142.738831 1725.108398,144.077713 
	C1721.117432,152.218292 1717.795410,160.686874 1714.102539,169.394058 
	C1718.289429,169.774750 1720.884521,170.156586 1723.672119,165.962234 
	C1725.073853,163.853134 1732.000488,165.415787 1736.428589,165.318008 
	C1738.238892,171.864273 1742.803467,169.830215 1747.421021,169.423004 
	C1749.321411,169.423004 1751.221680,169.423004 1753.700439,169.423004 
	C1753.700439,163.773560 1753.700439,158.622665 1753.700439,153.471786 
	C1756.296997,157.823318 1757.746582,162.363693 1759.656372,166.701447 
	C1760.224731,167.992249 1762.154419,169.575684 1763.334839,169.479782 
	C1764.818726,169.359238 1766.838257,167.950882 1767.460205,166.572083 
	C1769.400024,162.272156 1770.790039,157.724197 1772.393188,153.272369 
	C1772.802002,153.324890 1773.210815,153.377411 1773.619629,153.429932 
	C1773.619629,158.742081 1773.619629,164.054245 1773.619629,169.306824 
	C1776.234375,169.306824 1778.119141,169.306824 1780.028564,169.306824 
	C1780.028564,160.156174 1780.028564,151.398605 1780.028564,142.510361 
	C1778.575806,142.421692 1777.408813,142.457336 1776.281372,142.263184 
	C1771.383179,141.419647 1768.567383,143.064194 1767.565186,148.278320 
	C1766.873413,151.877029 1765.122192,155.272095 1763.553223,159.553574 
	C1761.669312,154.244232 1760.248291,149.807755 1758.477661,145.515594 
	C1757.954834,144.248383 1756.562500,142.688416 1755.361572,142.485062 
	C1752.672974,142.029694 1749.854248,142.342529 1746.969360,142.342529 
	C1746.969360,151.307449 1746.969360,159.613281 1746.271606,168.314392 
M1371.989136,97.909058 
	C1371.989136,112.495346 1371.989136,127.081627 1371.989136,143.206680 
	C1381.798218,134.059280 1392.803589,133.654633 1404.124023,133.862625 
	C1419.284546,134.141159 1434.454224,133.931564 1449.619873,133.931564 
	C1451.398682,133.931564 1453.177368,133.931564 1454.911743,133.931564 
	C1455.102417,136.710037 1455.249634,138.857147 1455.236206,141.819458 
	C1455.114868,143.101501 1454.993652,144.383530 1454.892700,145.449432 
	C1444.224731,144.056473 1433.888428,142.294006 1423.477417,141.441879 
	C1406.863892,140.082047 1393.483276,152.144363 1393.103149,168.197876 
	C1392.731934,183.875565 1405.529297,196.532166 1421.995850,195.871552 
	C1432.917725,195.433365 1443.790894,193.785446 1454.927734,192.654495 
	C1454.927734,195.672440 1454.927734,199.072845 1454.927734,202.925583 
	C1453.065430,202.925583 1451.437988,202.925598 1449.810547,202.925598 
	C1434.817017,202.925598 1419.821167,202.765884 1404.830566,202.977081 
	C1393.232910,203.140457 1381.863159,202.869888 1372.166748,194.049667 
	C1372.166748,226.317093 1372.166748,257.711975 1372.166748,289.126923 
	C1372.836304,289.314240 1373.302246,289.558167 1373.768433,289.558624 
	C1392.759888,289.577545 1411.770630,290.112244 1430.738037,289.437195 
	C1454.061768,288.607056 1474.170410,266.334503 1472.997925,243.063644 
	C1472.997314,181.106125 1473.004639,119.148598 1472.951538,57.191116 
	C1472.950195,55.551952 1472.289917,53.913353 1471.035278,52.038708 
	C1452.222778,52.035732 1433.406128,51.778721 1414.598877,52.091747 
	C1388.988525,52.518005 1371.105103,71.659958 1371.989136,97.909058 
M1585.076782,52.028431 
	C1566.619629,52.030693 1548.157593,51.767883 1529.706421,52.099903 
	C1504.624023,52.551247 1486.597900,71.512169 1487.041016,96.933212 
	C1487.041016,109.163422 1487.041016,121.393639 1487.041016,133.936142 
	C1508.657715,133.936142 1529.765747,133.925018 1550.873779,133.940140 
	C1564.494873,133.949890 1570.940430,140.358139 1570.883911,154.725418 
	C1569.051392,161.755646 1564.669678,166.412384 1556.983398,168.610077 
	C1559.429810,169.604401 1561.140015,170.225830 1562.788696,170.981445 
	C1574.123291,176.176086 1576.518066,191.408707 1566.523560,198.317673 
	C1562.449341,201.134064 1556.685181,202.602158 1551.641602,202.726974 
	C1531.832764,203.217148 1512.004639,202.927948 1492.183594,202.928177 
	C1490.440063,202.928192 1488.696533,202.928177 1487.036133,202.928177 
	C1487.036133,232.153809 1487.036133,260.605682 1487.036133,289.249207 
	C1488.179077,289.383118 1489.141968,289.593384 1490.105103,289.594360 
	C1508.093994,289.612823 1526.089600,289.881775 1544.067505,289.436249 
	C1549.409058,289.303894 1554.990234,287.849609 1559.962769,285.794373 
	C1577.376709,278.596863 1588.898193,260.603516 1587.680786,243.022324 
	C1587.695312,187.481857 1587.710205,131.941391 1587.724243,76.400932 
	C1587.725952,69.583054 1587.810547,62.763096 1587.646729,55.949165 
	C1587.616455,54.685181 1586.578247,53.445431 1585.076782,52.028431 
M1359.936401,243.081680 
	C1359.868774,241.742905 1359.801147,240.404129 1359.865601,238.128448 
	C1359.873169,177.575302 1359.882080,117.022171 1359.879761,56.469025 
	C1359.879761,55.310421 1359.748413,54.151825 1359.379028,52.227306 
	C1339.076904,52.190548 1318.742920,51.423767 1298.480713,52.305832 
	C1274.336548,53.356907 1257.076904,73.442505 1258.341553,97.961212 
	C1258.337769,123.759911 1258.419556,149.559113 1258.267944,175.356949 
	C1258.231445,181.561844 1260.603394,186.381714 1265.217651,190.116745 
	C1273.692505,196.976532 1283.207764,198.683090 1293.232666,194.203659 
	C1302.759277,189.946869 1305.969238,181.831161 1305.807495,171.798080 
	C1305.606934,159.357910 1305.759399,146.912048 1305.759399,134.201050 
	C1317.763550,134.201050 1329.345825,134.201050 1341.115601,134.201050 
	C1341.208008,135.531143 1341.296631,136.806290 1341.205688,138.995697 
	C1341.193604,150.160828 1340.976318,161.330612 1341.228760,172.489761 
	C1341.468384,183.081985 1337.227417,191.443375 1328.745850,197.236542 
	C1310.715088,209.552155 1291.154175,212.744659 1270.331665,205.274948 
	C1266.349976,203.846588 1262.652954,201.624771 1258.592529,199.656540 
	C1258.592529,229.677521 1258.592529,259.386414 1258.592529,289.607513 
	C1260.508179,289.607513 1262.138794,289.607544 1263.769287,289.607513 
	C1280.433838,289.607178 1297.098877,289.539490 1313.762939,289.635071 
	C1321.980713,289.682190 1329.599243,287.693726 1336.619995,283.513733 
	C1347.516846,277.026062 1355.188599,267.878876 1358.462158,255.510788 
	C1359.450806,251.775116 1359.378906,247.758759 1359.936401,243.081680 
M953.697998,274.896942 
	C954.051147,274.761719 954.404236,274.626465 955.109192,275.135315 
	C992.862366,311.143219 1037.632202,324.609375 1088.376953,313.329529 
	C1165.177124,296.257904 1213.231689,222.137421 1199.267334,144.681458 
	C1184.429688,62.382732 1103.314209,9.326094 1022.447754,29.217134 
	C996.371399,35.631233 973.546387,48.093124 954.144043,67.281670 
	C953.265137,66.528175 952.366028,65.796928 951.510315,65.017982 
	C913.942993,30.820492 870.138245,17.548059 820.490356,28.889538 
	C746.263428,45.845795 698.898254,116.000404 709.229614,191.590149 
	C721.271301,279.693481 808.335632,336.114197 893.626099,310.868317 
	C916.479431,304.103760 936.573608,292.372589 953.697998,274.896942 
M1927.512085,148.510559 
	C1927.512085,156.934921 1927.512085,165.359268 1927.512085,174.413544 
	C1920.475098,172.867203 1912.789062,177.900055 1908.222656,168.758499 
	C1907.971558,170.966583 1907.808594,172.399460 1907.607422,174.167404 
	C1900.720703,174.167404 1894.073364,174.276871 1887.436646,174.058746 
	C1886.341797,174.022766 1885.285645,172.561752 1884.226929,171.739655 
	C1882.837524,170.660873 1881.377441,168.601395 1880.104126,168.715118 
	C1878.496704,168.858688 1877.059570,170.784836 1875.524536,171.908615 
	C1874.455200,172.691406 1873.321411,174.096771 1872.255859,174.060516 
	C1864.564575,173.798782 1856.554321,175.916779 1850.443604,171.576782 
	C1845.674927,176.187897 1840.394531,173.684814 1835.838379,174.056580 
	C1830.769653,174.470154 1825.131470,175.665344 1821.777222,168.970596 
	C1821.326660,171.323868 1821.067993,172.674698 1820.781494,174.171432 
	C1792.975952,174.171432 1765.487793,174.218369 1738.001221,174.033112 
	C1736.623047,174.023849 1735.310669,171.927689 1733.872314,170.942200 
	C1732.531250,170.023254 1731.091675,168.723618 1729.641968,168.650497 
	C1728.443726,168.590027 1726.404663,169.838745 1726.069458,170.920029 
	C1725.088501,174.085083 1723.006836,174.375076 1720.323486,174.198517 
	C1718.379028,174.070618 1716.419556,174.173553 1714.308594,174.173553 
	C1714.308594,213.714691 1714.308594,252.755157 1714.308594,291.770111 
	C1790.557617,291.770111 1866.474976,291.770111 1942.599854,291.770111 
	C1942.599854,267.770538 1942.599854,244.047363 1942.599854,220.950073 
	C1936.973633,221.282730 1931.566406,221.849945 1926.156250,221.878387 
	C1905.492065,221.987076 1884.826172,221.839371 1864.162598,221.997894 
	C1860.392944,222.026810 1857.337646,221.494751 1855.358521,217.998886 
	C1855.196167,217.712234 1854.598755,217.672012 1854.149170,217.496033 
	C1853.987061,218.970322 1853.844116,220.270538 1853.694214,221.633423 
	C1848.798462,221.633423 1844.044189,221.633423 1838.872559,221.633423 
	C1838.872559,218.583771 1838.872559,215.809677 1838.872559,212.799484 
	C1834.724609,213.176559 1831.027100,213.512711 1827.323975,213.849350 
	C1827.154785,216.730392 1827.012207,219.159225 1826.849976,221.922302 
	C1821.869507,221.922302 1817.229614,221.916122 1812.589600,221.923996 
	C1807.863892,221.932022 1802.694458,223.091858 1800.320557,215.181946 
	C1797.912598,222.685791 1793.053711,222.027847 1788.366577,221.939667 
	C1784.035156,221.858170 1779.701050,221.922302 1775.368042,221.922302 
	C1769.786255,221.922302 1764.204590,221.922302 1758.684082,221.922302 
	C1758.684082,209.411880 1758.684082,197.689621 1758.684082,185.577423 
	C1769.052124,185.577423 1779.031738,185.702347 1789.006104,185.522247 
	C1793.661255,185.438171 1798.121094,185.212387 1800.468384,191.604797 
	C1802.998413,185.410797 1807.351196,185.497040 1812.055908,185.510178 
	C1853.551880,185.626099 1895.048340,185.577438 1936.544678,185.577438 
	C1938.495850,185.577438 1940.447021,185.577423 1942.501221,185.577423 
	C1942.501221,143.714905 1942.501221,102.496620 1942.501221,61.245075 
	C1866.237305,61.245075 1790.313599,61.245075 1714.267212,61.245075 
	C1714.267212,92.973373 1714.267212,124.454292 1714.267212,156.093933 
	C1714.679321,155.866959 1714.870361,155.829300 1714.913696,155.728302 
	C1717.010986,150.838974 1719.017700,145.908417 1721.236328,141.075195 
	C1721.787842,139.873901 1722.967041,138.158234 1723.948364,138.095398 
	C1728.251343,137.819855 1732.845093,137.237610 1736.803223,138.469574 
	C1738.775635,139.083466 1739.596802,143.369690 1740.972778,145.976791 
	C1741.084717,146.188904 1741.460815,146.261688 1741.963257,146.534439 
	C1742.104126,143.713379 1742.239136,141.009354 1742.383301,138.123352 
	C1748.683105,138.123352 1754.631470,138.123352 1760.605469,138.123352 
	C1761.547607,140.434982 1762.444092,142.634384 1763.340454,144.833771 
	C1764.278076,137.348984 1769.445068,137.818283 1774.829590,137.852371 
	C1797.993286,137.999023 1821.158813,137.863846 1844.322510,138.003662 
	C1846.369751,138.016037 1848.409546,139.275040 1850.736816,140.049576 
	C1854.127441,139.418274 1858.120728,138.305481 1862.172974,138.013168 
	C1867.311890,137.642487 1872.548828,138.394547 1877.652832,137.835144 
	C1884.591553,137.074631 1889.582642,138.571259 1891.132080,146.152359 
	C1891.161621,146.297089 1891.674316,146.343018 1892.469971,146.597824 
	C1892.469971,143.676743 1892.469971,140.929764 1892.469971,137.591873 
	C1899.240234,139.436707 1907.186890,133.921051 1911.689087,144.132339 
	C1911.921265,141.312424 1912.048828,139.762573 1912.174438,138.235352 
	C1917.367310,138.235352 1922.296021,138.235352 1927.512573,138.235352 
	C1927.512573,141.541168 1927.512573,144.528397 1927.512085,148.510559 
M597.000977,262.384735 
	C597.000977,232.052490 597.016479,201.720230 596.970154,171.388062 
	C596.966614,169.083435 596.738037,166.733154 596.251770,164.482346 
	C591.473816,142.367783 586.637512,120.265793 581.775940,98.169426 
	C580.183167,90.930252 578.468750,83.717857 576.852112,76.676498 
	C561.905823,76.676498 547.584045,76.534309 533.266541,76.720375 
	C521.274353,76.876221 513.710205,83.119438 508.919556,94.055862 
	C487.171173,143.704880 465.121490,193.221909 443.200317,242.795319 
	C439.860352,250.348511 436.626038,257.948395 433.282593,265.665863 
	C434.233002,265.957184 434.675568,266.210724 435.118622,266.211639 
	C451.617767,266.245544 468.117615,266.320831 484.614716,266.141968 
	C485.878601,266.128235 487.735901,264.554199 488.274292,263.268585 
	C491.227295,256.217346 494.071106,249.102234 496.497589,241.856750 
	C497.617493,238.512756 499.333221,237.752029 502.638245,237.783752 
	C521.636047,237.966202 540.636230,237.899124 559.635620,237.934418 
	C561.255615,237.937424 562.875366,238.070572 564.570068,238.146622 
	C566.435608,246.617371 568.113403,254.751358 570.113342,262.805359 
	C570.444336,264.138519 572.143799,266.065643 573.278320,266.113312 
	C580.431946,266.414062 587.607361,266.349548 594.767212,266.132202 
	C595.538818,266.108765 596.257080,264.329285 597.000977,262.384735 
M436.302795,199.209152 
	C435.426361,188.404480 430.527893,179.552338 423.032837,171.980606 
	C414.333679,163.192535 403.513336,157.712723 392.656708,152.175964 
	C384.687714,148.111847 376.579041,143.999283 369.466034,138.663895 
	C361.316986,132.551392 362.120056,123.186325 371.073364,118.315582 
	C376.302917,115.470642 382.554596,113.693871 388.505066,113.139641 
	C405.207733,111.583954 421.343567,114.499268 437.093872,122.092972 
	C439.467499,108.225609 441.783173,94.696815 444.132355,80.972183 
	C424.797455,74.040428 405.289642,71.781090 385.299347,73.540840 
	C366.600281,75.186928 349.012970,80.179008 333.593323,91.398705 
	C309.034729,109.268074 295.378571,149.862900 334.672607,175.552963 
	C342.986420,180.988419 352.235382,184.973740 360.879547,189.930511 
	C366.763489,193.304520 372.885498,196.591675 377.926788,201.025436 
	C384.521881,206.825745 384.103943,216.101456 377.140930,221.464188 
	C373.199371,224.499863 368.106140,227.470352 363.366730,227.758514 
	C351.499481,228.480103 339.355835,228.862625 327.668335,227.096481 
	C316.985596,225.482193 306.755554,220.872147 295.961090,217.467209 
	C295.733551,218.600967 295.339325,220.342972 295.038452,222.100937 
	C293.213776,232.761185 291.685150,243.482834 289.461945,254.058746 
	C288.598114,258.168060 289.627533,260.041840 293.418610,260.780396 
	C306.776245,263.382721 320.043304,266.877258 333.527740,268.305389 
	C355.991943,270.684479 378.121429,268.314850 398.994049,258.823517 
	C424.273254,247.328384 438.521973,224.812744 436.302795,199.209152 
M215.953125,199.434769 
	C212.189392,221.497421 208.425674,243.560089 204.604492,265.959534 
	C222.125214,265.959534 239.033585,265.959534 256.364105,265.959534 
	C267.141602,202.748642 277.899292,139.654007 288.701172,76.300171 
	C271.075714,76.300171 254.292130,76.300171 236.960617,76.300171 
	C229.977722,117.085205 223.002213,157.827072 215.953125,199.434769 
M1522.449463,170.994080 
	C1516.502808,170.994080 1510.556152,170.994080 1504.480591,170.994080 
	C1504.480591,179.348892 1504.480591,187.214096 1504.480591,195.314835 
	C1513.421509,195.314835 1522.065674,195.703918 1530.654785,195.185150 
	C1536.921265,194.806671 1541.670410,188.742325 1541.449341,182.836960 
	C1541.219360,176.694092 1535.807739,171.345459 1529.417603,171.020966 
	C1527.425171,170.919769 1525.423828,170.997986 1522.449463,170.994080 
M1517.502075,141.150406 
	C1513.106323,141.150406 1508.710571,141.150406 1504.441406,141.150406 
	C1504.441406,149.587387 1504.441406,157.157471 1504.441406,165.096573 
	C1512.497192,165.096573 1520.268311,165.141785 1528.038574,165.083679 
	C1535.621338,165.026993 1540.900391,160.266586 1540.937500,153.578857 
	C1540.973511,147.105942 1535.435547,141.536896 1528.446777,141.192917 
	C1525.135742,141.029907 1521.810425,141.155563 1517.502075,141.150406 
M1804.077637,169.713120 
	C1808.932495,169.496841 1806.413696,166.224319 1806.811768,163.666656 
	C1801.814941,163.666656 1797.182617,163.666656 1792.220703,163.666656 
	C1792.220703,161.969376 1792.220703,160.613083 1792.220703,158.755829 
	C1797.113281,158.755829 1801.690063,158.755829 1806.310791,158.755829 
	C1806.310791,156.661850 1806.310791,155.070953 1806.310791,153.007782 
	C1801.450317,153.007782 1796.856812,153.007782 1792.391846,153.007782 
	C1791.129150,149.400635 1792.421631,148.391373 1795.508667,148.513977 
	C1799.243530,148.662292 1802.988647,148.549149 1806.776123,148.549149 
	C1806.776123,146.099457 1806.776123,144.471176 1806.776123,142.554443 
	C1799.519897,142.554443 1792.450684,142.554443 1785.320923,142.554443 
	C1785.320923,151.697952 1785.320923,160.558578 1785.320923,169.715408 
	C1791.534058,169.715408 1797.346558,169.715408 1804.077637,169.713120 
M1878.441650,211.043854 
	C1876.426025,208.160141 1877.019531,206.569748 1880.692993,206.552292 
	C1884.330688,206.535004 1887.968628,206.548508 1891.694092,206.548508 
	C1891.694092,204.384842 1891.694092,202.672455 1891.694092,200.729111 
	C1888.542480,200.729111 1885.717285,200.816544 1882.900024,200.703720 
	C1880.254028,200.597763 1876.357544,201.786743 1877.855957,196.028366 
	C1882.632324,196.028366 1887.379517,196.028366 1892.217896,196.028366 
	C1892.217896,193.756104 1892.217896,192.020615 1892.217896,190.327209 
	C1884.843750,190.327209 1877.789673,190.327209 1870.755615,190.327209 
	C1870.755615,199.402328 1870.755615,208.124069 1870.755615,216.937561 
	C1878.070435,216.937561 1885.013184,216.937561 1892.192139,216.937561 
	C1892.192139,215.010010 1892.192139,213.293030 1892.192139,211.170441 
	C1887.727661,211.170441 1883.593994,211.170441 1878.441650,211.043854 
M1857.974121,213.688477 
	C1860.288452,217.845413 1863.938599,217.553925 1868.580811,216.671097 
	C1865.812012,213.455948 1863.379883,210.631744 1860.808105,207.645416 
	C1861.872070,207.047134 1862.713745,206.618256 1863.510742,206.117905 
	C1866.816162,204.042389 1868.263428,201.005417 1867.585327,197.202042 
	C1866.902954,193.374115 1864.383667,190.627151 1860.630493,190.314438 
	C1854.936523,189.839996 1849.173828,190.190414 1843.584717,190.190414 
	C1843.584717,199.469223 1843.584717,208.176498 1843.584717,216.827332 
	C1845.895996,216.827332 1847.807983,216.827332 1850.055298,216.827332 
	C1850.055298,213.742737 1850.055298,210.960144 1850.055298,208.177551 
	C1850.499146,207.826050 1850.942993,207.474548 1851.386841,207.123047 
	C1853.431274,209.112259 1855.475586,211.101471 1857.974121,213.688477 
M1825.481812,166.117767 
	C1827.846436,170.534363 1831.615845,170.020920 1836.249512,169.296249 
	C1833.374023,165.930206 1830.949951,163.092453 1828.284424,159.972229 
	C1829.297485,159.439804 1829.838013,159.155777 1830.378418,158.871826 
	C1834.293091,156.814758 1835.682861,153.435989 1834.910645,149.288788 
	C1834.152222,145.214737 1831.302368,142.825150 1827.293823,142.588043 
	C1821.912354,142.269730 1816.497803,142.509171 1811.071167,142.509171 
	C1811.071167,151.757812 1811.071167,160.486313 1811.071167,169.390137 
	C1813.254517,169.390137 1815.139404,169.390137 1817.313599,169.390137 
	C1817.512085,166.109543 1817.694092,163.100372 1817.876099,160.091202 
	C1818.383301,159.823975 1818.890625,159.556732 1819.397827,159.289505 
	C1821.269287,161.374664 1823.140747,163.459808 1825.481812,166.117767 
M1780.094971,206.523407 
	C1784.846802,207.047424 1785.407593,204.774719 1783.914307,200.792435 
	C1780.277100,200.792435 1776.787354,200.685196 1773.306885,200.821289 
	C1769.493652,200.970398 1769.214722,199.208435 1770.668701,195.833511 
	C1775.338379,195.833511 1780.075928,195.833511 1784.781982,195.833511 
	C1784.781982,193.713974 1784.781982,192.096878 1784.781982,190.233932 
	C1777.543213,190.233932 1770.481323,190.233932 1763.190918,190.233932 
	C1763.190918,199.185364 1763.190918,207.909225 1763.190918,216.863434 
	C1770.474854,216.863434 1777.526245,216.863434 1784.960449,216.863434 
	C1784.869507,214.871353 1784.791992,213.173431 1784.698486,211.127731 
	C1779.585083,211.127731 1774.979370,211.127731 1769.939941,211.127731 
	C1770.039307,209.388504 1770.115601,208.052124 1770.202881,206.523102 
	C1773.543823,206.523102 1776.366211,206.523102 1780.094971,206.523407 
M1913.219971,189.980118 
	C1909.400024,190.082870 1905.524170,189.814941 1901.773682,190.379578 
	C1896.772095,191.132614 1894.432861,194.653854 1894.867065,199.677032 
	C1895.244995,204.049744 1897.963745,206.519714 1902.906372,206.849747 
	C1904.728760,206.971451 1906.619019,206.619568 1908.377075,206.978729 
	C1909.586548,207.225815 1910.621948,208.325195 1911.735107,209.043610 
	C1910.617188,209.759811 1909.533203,211.021957 1908.375366,211.093658 
	C1904.287598,211.346848 1900.174683,211.192215 1895.933838,211.192215 
	C1895.933838,213.496796 1895.933838,215.209473 1895.933838,217.143494 
	C1899.944336,217.143494 1903.597046,217.146011 1907.249878,217.142029 
	C1908.414429,217.140762 1909.583130,217.182526 1910.742676,217.101151 
	C1915.583618,216.761353 1918.750488,213.420166 1918.776855,208.675003 
	C1918.802368,204.111572 1915.866455,201.142288 1910.914917,200.842041 
	C1908.925049,200.721375 1906.871704,201.058197 1904.945679,200.682220 
	C1903.718994,200.442795 1902.673096,199.276566 1901.546143,198.525833 
	C1902.613281,197.721680 1903.581909,196.488205 1904.771118,196.215134 
	C1906.510498,195.815674 1908.433838,195.906067 1910.233154,196.139511 
	C1914.841553,196.737396 1917.479492,195.097244 1917.635132,189.980164 
	C1916.440918,189.980164 1915.284912,189.980164 1913.219971,189.980118 
M1940.851318,194.758728 
	C1941.462891,193.292404 1942.074341,191.826080 1942.751709,190.202011 
	C1937.154297,190.202011 1931.979736,189.831665 1926.884033,190.307739 
	C1921.937378,190.769882 1918.948120,194.732330 1919.280029,199.192490 
	C1919.616211,203.713791 1922.551636,206.478928 1927.541260,206.840530 
	C1929.360474,206.972366 1931.251099,206.613434 1933.004639,206.979218 
	C1934.175293,207.223373 1935.161133,208.352234 1936.229736,209.085205 
	C1935.125366,209.788452 1934.053223,211.029434 1932.910645,211.098190 
	C1928.812988,211.344849 1924.691528,211.194916 1920.477783,211.194916 
	C1920.477783,213.457245 1920.477783,215.154343 1920.477783,217.112411 
	C1925.639404,217.112411 1930.447266,217.248062 1935.244019,217.075974 
	C1940.525635,216.886490 1943.347534,213.647598 1943.214966,208.327225 
	C1943.094971,203.511612 1940.525513,201.069687 1935.232422,200.816055 
	C1933.573853,200.736588 1931.817749,201.120255 1930.273315,200.690933 
	C1928.793579,200.279510 1927.530884,199.087982 1926.172729,198.239273 
	C1927.478760,197.526886 1928.724121,196.380875 1930.102783,196.187836 
	C1933.501709,195.711868 1936.961914,195.673416 1940.851318,194.758728 
M1815.936401,210.428009 
	C1815.936401,212.539520 1815.936401,214.651016 1815.936401,216.803925 
	C1818.502808,216.803925 1820.545654,216.803925 1822.999756,216.803925 
	C1822.999756,214.050369 1822.999756,211.631241 1822.999756,209.170425 
	C1826.828491,208.784454 1830.320190,208.757324 1833.654175,208.018234 
	C1838.352783,206.976562 1840.446167,203.533142 1840.378540,198.849106 
	C1840.313110,194.315613 1837.450684,190.626373 1832.937744,190.263367 
	C1827.396606,189.817688 1821.792358,190.157043 1815.936401,190.157043 
	C1815.936401,196.877838 1815.936401,203.160278 1815.936401,210.428009 
M1789.735718,212.204666 
	C1788.684814,213.627136 1787.633789,215.049606 1786.567139,216.493332 
	C1794.473389,219.959213 1796.650146,213.073029 1800.429688,209.074829 
	C1804.080811,213.596893 1806.486938,219.938110 1814.375854,216.346527 
	C1811.108521,212.125305 1807.885986,207.961990 1804.523804,203.618195 
	C1807.971924,199.185303 1811.293579,194.914810 1814.644287,190.607208 
	C1806.639893,187.271362 1804.414062,194.019943 1800.519531,198.285583 
	C1796.689575,193.913834 1794.145874,187.355713 1786.118042,190.611099 
	C1789.546265,195.055527 1792.929321,199.441269 1796.331665,203.852081 
	C1794.073608,206.694550 1792.113770,209.161789 1789.735718,212.204666 
M1849.649536,163.547028 
	C1850.821533,164.925674 1851.791992,166.571625 1853.201904,167.634750 
	C1858.176514,171.386154 1861.382446,170.189301 1863.012817,163.990204 
	C1862.395142,163.841599 1861.781006,163.696335 1861.168213,163.546082 
	C1856.302612,162.353119 1854.410156,159.802307 1854.979004,155.049347 
	C1855.544922,150.319656 1858.459595,148.617020 1862.965332,148.918808 
	C1864.862061,149.045853 1866.774414,148.939972 1868.604492,148.939972 
	C1868.604492,146.355530 1868.604492,144.584656 1868.604492,142.863770 
	C1852.510620,140.056763 1844.674927,148.291946 1849.649536,163.547028 
M1837.871094,153.521530 
	C1837.871094,158.778992 1837.871094,164.036453 1837.871094,169.295502 
	C1840.524536,169.295502 1842.555542,169.295502 1844.522461,169.295502 
	C1844.522461,160.147125 1844.522461,151.424042 1844.522461,142.678421 
	C1842.148560,142.678421 1840.126099,142.678421 1837.871094,142.678421 
	C1837.871094,146.238022 1837.871094,149.385025 1837.871094,153.521530 
z"/>
<path fill="#F9A71D" opacity="1.000000" stroke="none" 
	d="
M1.000000,76.458069 
	C20.646013,76.056969 40.292320,76.072151 59.937763,76.209953 
	C63.414574,76.234344 66.941032,76.485779 70.352234,77.125084 
	C78.985718,78.743111 84.982025,83.690361 86.833786,92.430222 
	C92.689903,120.069550 98.294815,147.762100 103.730629,175.609314 
	C88.972244,142.953979 65.309662,118.705086 34.028984,101.585152 
	C23.271217,96.726212 12.513452,91.867279 1.377842,87.004166 
	C1.000000,83.638710 1.000000,80.277428 1.000000,76.458069 
z"/>
<path fill="#E87A01" opacity="1.000000" stroke="none" 
	d="
M954.776367,67.557030 
	C973.546387,48.093124 996.371399,35.631233 1022.447754,29.217134 
	C1103.314209,9.326094 1184.429688,62.382732 1199.267334,144.681458 
	C1213.231689,222.137421 1165.177124,296.257904 1088.376953,313.329529 
	C1037.632202,324.609375 992.862366,311.143219 955.030518,274.509216 
	C959.712646,268.118073 964.761597,262.564697 969.182068,256.549500 
	C984.501099,235.704285 992.770203,212.073563 996.454407,186.743484 
	C1006.964417,195.061722 1018.259155,197.311356 1030.459717,192.456024 
	C1040.092285,188.622742 1046.301025,181.466476 1049.282593,170.895081 
	C1044.026001,170.895081 1039.365479,170.726868 1034.730957,170.998367 
	C1033.354858,171.078979 1031.752075,172.119659 1030.762695,173.190964 
	C1023.945251,180.573547 1013.659546,181.174667 1006.848389,174.442780 
	C1000.337952,168.008163 1000.430908,157.882721 1007.056885,151.731598 
	C1014.109131,145.184799 1024.264771,146.032562 1030.964478,153.612915 
	C1031.840942,154.604492 1033.236694,155.679810 1034.442139,155.741882 
	C1039.192749,155.986496 1043.963379,155.842178 1049.189087,155.842178 
	C1047.688965,149.156219 1044.427124,144.311874 1039.969238,140.160812 
	C1029.166138,130.100998 1008.924683,127.104874 993.880615,141.714355 
	C991.771423,134.530182 990.185730,127.573395 987.798767,120.903366 
	C980.731323,101.154480 969.976135,83.648552 954.961304,68.628036 
	C954.817322,68.136871 954.767700,67.852028 954.776367,67.557030 
M1179.378540,165.500107 
	C1179.378540,154.756882 1179.378540,144.013657 1179.378540,133.357788 
	C1174.198975,133.357788 1169.805908,133.357788 1164.921387,133.357788 
	C1164.921387,138.912048 1164.921387,144.097305 1164.921387,149.443573 
	C1152.009155,144.365356 1142.183838,146.542114 1135.404297,155.674316 
	C1128.617554,164.816284 1129.034058,177.751785 1136.402954,186.686752 
	C1143.572876,195.380524 1152.845093,196.795898 1164.995605,191.125504 
	C1168.908813,196.522110 1174.281982,192.404419 1179.378784,194.142624 
	C1179.378784,184.395737 1179.378784,175.447922 1179.378540,165.500107 
M1065.395996,193.304001 
	C1072.162842,196.061890 1078.417969,194.541367 1084.128906,191.017471 
	C1088.502808,196.130661 1093.862915,192.712219 1098.710571,193.851624 
	C1098.710571,177.966278 1098.710571,162.754791 1098.710571,147.758331 
	C1091.271118,145.322281 1084.192017,149.321991 1076.757690,147.175430 
	C1072.518188,145.951370 1066.720825,147.281128 1062.530762,149.321289 
	C1053.873779,153.536301 1049.839111,161.529709 1050.077637,171.013992 
	C1050.332031,181.134018 1055.387085,188.636978 1065.395996,193.304001 
M1118.070679,151.928833 
	C1117.634521,150.400742 1117.198486,148.872650 1116.846680,147.640320 
	C1112.414307,147.640320 1108.343994,147.640320 1104.371094,147.640320 
	C1104.371094,163.164291 1104.371094,178.254654 1104.371094,193.492737 
	C1109.098145,193.492737 1113.506104,193.492737 1118.505371,193.492737 
	C1118.505371,185.077820 1118.440308,176.952591 1118.527710,168.828995 
	C1118.588379,163.175354 1120.495972,161.092255 1126.081787,160.225357 
	C1127.511719,160.003448 1128.964600,159.931122 1130.376953,159.793030 
	C1130.376953,155.442337 1130.376953,151.396484 1130.376953,145.442398 
	C1125.800415,147.999878 1122.338623,149.934341 1118.070679,151.928833 
M1184.231079,189.070129 
	C1179.752319,188.488602 1181.009644,191.038055 1181.787109,194.515610 
	C1182.676880,192.660675 1183.107300,191.763351 1182.976807,192.035324 
	C1184.970947,192.635849 1186.744629,193.629166 1188.406006,193.467560 
	C1189.182373,193.392044 1189.741699,191.083420 1190.356812,189.870850 
	C1187.947021,189.523911 1186.503662,189.316116 1184.231079,189.070129 
z"/>
<path fill="#FF0808" opacity="1.000000" stroke="none" 
	d="
M954.460205,67.419350 
	C954.767700,67.852028 954.817322,68.136871 954.617554,68.695099 
	C953.019592,69.990730 951.606873,70.880814 950.457703,72.033661 
	C937.952087,84.578949 929.034668,99.554695 922.372559,115.752220 
	C917.210144,128.303680 913.059692,141.310135 913.015503,155.397247 
	C913.000977,155.614487 912.795837,155.998550 912.625732,156.132767 
	C912.261658,156.490326 912.140869,156.747940 912.027100,157.399734 
	C906.637939,166.544083 907.380920,175.307068 912.051514,184.474579 
	C912.357117,186.679489 912.737427,188.456924 912.961975,190.253799 
	C916.045898,214.932892 924.885071,237.310287 939.756287,257.269775 
	C944.177795,263.204193 948.676025,269.081482 953.139038,274.984985 
	C936.573608,292.372589 916.479431,304.103760 893.626099,310.868317 
	C808.335632,336.114197 721.271301,279.693481 709.229614,191.590149 
	C698.898254,116.000404 746.263428,45.845795 820.490356,28.889538 
	C870.138245,17.548059 913.942993,30.820492 951.510315,65.017982 
	C952.366028,65.796928 953.265137,66.528175 954.460205,67.419350 
M880.937012,155.359756 
	C875.971619,146.982483 866.603882,144.070740 857.128540,147.959457 
	C850.529968,150.667511 846.723083,156.214828 847.103638,162.567505 
	C847.479370,168.840302 850.964417,172.766129 858.213623,174.999298 
	C860.118347,175.586060 862.234314,175.723587 863.942810,176.643845 
	C865.643799,177.560074 867.196899,179.037521 868.272217,180.634277 
	C868.554077,181.052933 866.680847,183.868958 866.042542,183.782104 
	C864.195007,183.530746 862.460938,182.386246 860.704590,181.545593 
	C859.618408,181.025681 858.596191,179.990494 857.505127,179.931763 
	C853.740479,179.729111 849.958191,179.853745 845.917603,179.853745 
	C846.183044,181.388855 846.226501,182.394577 846.535278,183.310898 
	C850.036255,193.701508 864.203125,198.115784 875.204041,192.214798 
	C880.812988,189.206146 883.964417,184.608551 883.581970,178.069229 
	C883.193481,171.426773 878.774902,168.152985 873.072327,166.193405 
	C870.250488,165.223709 867.173096,164.878464 864.508240,163.621353 
	C863.190247,162.999634 862.193298,161.049500 861.764771,159.502701 
	C861.588196,158.865402 863.343994,156.908722 864.122253,156.963150 
	C865.508240,157.060043 867.078369,157.974182 868.102600,159.010101 
	C869.770752,160.697220 880.162231,162.061188 881.799133,160.360977 
	C882.209839,159.934372 881.854980,158.770767 882.786194,157.848969 
	C884.224915,157.987823 885.663635,158.126678 887.529419,158.306763 
	C887.529419,170.139557 887.529419,181.711380 887.529419,193.346451 
	C892.529480,193.346451 897.059448,193.346451 902.022949,193.346451 
	C902.022949,181.369614 902.022949,169.793503 902.022949,158.263092 
	C904.214539,158.043503 905.960632,157.868546 907.674072,157.696854 
	C907.674072,154.084061 907.674072,150.823502 907.674072,147.285782 
	C905.704895,147.160080 903.964294,147.048965 901.762939,146.908432 
	C901.762939,142.201965 901.762939,137.787415 901.762939,133.238739 
	C896.863342,133.238739 892.455811,133.238739 887.542358,133.238739 
	C887.542358,137.886322 887.542358,142.294312 887.542358,146.632217 
	C885.473328,146.984344 883.903687,147.251465 882.876404,147.426285 
	C882.175720,150.617447 881.577515,153.341980 880.937012,155.359756 
M788.218689,193.741043 
	C791.910156,194.104507 791.071228,191.394653 791.074707,189.401321 
	C791.105774,171.740967 791.101807,154.080536 791.076904,136.420181 
	C791.075378,135.330643 790.809937,134.241470 790.664856,133.134003 
	C783.696533,133.134003 777.056152,133.134003 770.063599,133.134003 
	C766.047852,145.388580 762.037231,157.627335 757.746460,170.721069 
	C753.842529,158.851654 750.301331,147.876709 746.564636,136.968704 
	C746.054626,135.479996 744.631409,133.258423 743.524048,133.193253 
	C737.295227,132.826767 731.033691,133.016495 724.775757,133.016495 
	C724.775757,153.589844 724.775757,173.498642 724.775757,193.431244 
	C729.547974,193.431244 733.963196,193.431244 738.789856,193.431244 
	C738.789856,181.470352 738.789856,169.812134 738.789856,158.153915 
	C740.075134,159.162567 740.506165,160.324173 740.899414,161.498459 
	C744.115967,171.104752 747.596680,180.634430 750.426270,190.353622 
	C751.906250,195.437469 755.530151,193.315048 758.449341,193.714706 
	C761.264099,194.100067 763.338135,193.725632 764.368103,190.188385 
	C766.640320,182.385147 769.512878,174.756439 772.150452,167.059967 
	C773.263916,163.810684 774.402832,160.570114 775.530151,157.325577 
	C775.858459,157.402451 776.186707,157.479309 776.515015,157.556168 
	C776.515015,169.470627 776.515015,181.385086 776.515015,193.738541 
	C780.349915,193.738541 783.814575,193.738541 788.218689,193.741043 
M843.261169,160.508636 
	C843.261169,156.231003 843.261169,151.953354 843.261169,146.908646 
	C837.864380,147.269455 833.063843,147.590408 828.263306,147.911362 
	C828.305054,148.403412 828.346802,148.895462 828.388550,149.387512 
	C817.050354,144.204834 806.625977,146.234955 799.755676,154.963776 
	C792.695862,163.933365 792.553772,176.358292 799.406433,185.498260 
	C806.597900,195.090057 815.700806,196.796860 828.816956,191.132767 
	C832.831787,196.363785 838.139160,192.489380 843.261169,194.061356 
	C843.261169,182.683075 843.261169,172.094131 843.261169,160.508636 
z"/>
<path fill="#0370D0" opacity="1.000000" stroke="none" 
	d="
M1927.512329,148.013092 
	C1927.512573,144.528397 1927.512573,141.541168 1927.512573,138.235352 
	C1922.296021,138.235352 1917.367310,138.235352 1912.174438,138.235352 
	C1912.048828,139.762573 1911.921265,141.312424 1911.689087,144.132339 
	C1907.186890,133.921051 1899.240234,139.436707 1892.469971,137.591873 
	C1892.469971,140.929764 1892.469971,143.676743 1892.469971,146.597824 
	C1891.674316,146.343018 1891.161621,146.297089 1891.132080,146.152359 
	C1889.582642,138.571259 1884.591553,137.074631 1877.652832,137.835144 
	C1872.548828,138.394547 1867.311890,137.642487 1862.172974,138.013168 
	C1858.120728,138.305481 1854.127441,139.418274 1850.736816,140.049576 
	C1848.409546,139.275040 1846.369751,138.016037 1844.322510,138.003662 
	C1821.158813,137.863846 1797.993286,137.999023 1774.829590,137.852371 
	C1769.445068,137.818283 1764.278076,137.348984 1763.340454,144.833771 
	C1762.444092,142.634384 1761.547607,140.434982 1760.605469,138.123352 
	C1754.631470,138.123352 1748.683105,138.123352 1742.383301,138.123352 
	C1742.239136,141.009354 1742.104126,143.713379 1741.963257,146.534439 
	C1741.460815,146.261688 1741.084717,146.188904 1740.972778,145.976791 
	C1739.596802,143.369690 1738.775635,139.083466 1736.803223,138.469574 
	C1732.845093,137.237610 1728.251343,137.819855 1723.948364,138.095398 
	C1722.967041,138.158234 1721.787842,139.873901 1721.236328,141.075195 
	C1719.017700,145.908417 1717.010986,150.838974 1714.913696,155.728302 
	C1714.870361,155.829300 1714.679321,155.866959 1714.267212,156.093933 
	C1714.267212,124.454292 1714.267212,92.973373 1714.267212,61.245075 
	C1790.313599,61.245075 1866.237305,61.245075 1942.501221,61.245075 
	C1942.501221,102.496620 1942.501221,143.714905 1942.501221,185.577423 
	C1940.447021,185.577423 1938.495850,185.577438 1936.544678,185.577438 
	C1895.048340,185.577438 1853.551880,185.626099 1812.055908,185.510178 
	C1807.351196,185.497040 1802.998413,185.410797 1800.468384,191.604797 
	C1798.121094,185.212387 1793.661255,185.438171 1789.006104,185.522247 
	C1779.031738,185.702347 1769.052124,185.577423 1758.684082,185.577423 
	C1758.684082,197.689621 1758.684082,209.411880 1758.684082,221.922302 
	C1764.204590,221.922302 1769.786255,221.922302 1775.368042,221.922302 
	C1779.701050,221.922302 1784.035156,221.858170 1788.366577,221.939667 
	C1793.053711,222.027847 1797.912598,222.685791 1800.320557,215.181946 
	C1802.694458,223.091858 1807.863892,221.932022 1812.589600,221.923996 
	C1817.229614,221.916122 1821.869507,221.922302 1826.849976,221.922302 
	C1827.012207,219.159225 1827.154785,216.730392 1827.323975,213.849350 
	C1831.027100,213.512711 1834.724609,213.176559 1838.872559,212.799484 
	C1838.872559,215.809677 1838.872559,218.583771 1838.872559,221.633423 
	C1844.044189,221.633423 1848.798462,221.633423 1853.694214,221.633423 
	C1853.844116,220.270538 1853.987061,218.970322 1854.149170,217.496033 
	C1854.598755,217.672012 1855.196167,217.712234 1855.358521,217.998886 
	C1857.337646,221.494751 1860.392944,222.026810 1864.162598,221.997894 
	C1884.826172,221.839371 1905.492065,221.987076 1926.156250,221.878387 
	C1931.566406,221.849945 1936.973633,221.282730 1942.599854,220.950073 
	C1942.599854,244.047363 1942.599854,267.770538 1942.599854,291.770111 
	C1866.474976,291.770111 1790.557617,291.770111 1714.308594,291.770111 
	C1714.308594,252.755157 1714.308594,213.714691 1714.308594,174.173553 
	C1716.419556,174.173553 1718.379028,174.070618 1720.323486,174.198517 
	C1723.006836,174.375076 1725.088501,174.085083 1726.069458,170.920029 
	C1726.404663,169.838745 1728.443726,168.590027 1729.641968,168.650497 
	C1731.091675,168.723618 1732.531250,170.023254 1733.872314,170.942200 
	C1735.310669,171.927689 1736.623047,174.023849 1738.001221,174.033112 
	C1765.487793,174.218369 1792.975952,174.171432 1820.781494,174.171432 
	C1821.067993,172.674698 1821.326660,171.323868 1821.777222,168.970596 
	C1825.131470,175.665344 1830.769653,174.470154 1835.838379,174.056580 
	C1840.394531,173.684814 1845.674927,176.187897 1850.443604,171.576782 
	C1856.554321,175.916779 1864.564575,173.798782 1872.255859,174.060516 
	C1873.321411,174.096771 1874.455200,172.691406 1875.524536,171.908615 
	C1877.059570,170.784836 1878.496704,168.858688 1880.104126,168.715118 
	C1881.377441,168.601395 1882.837524,170.660873 1884.226929,171.739655 
	C1885.285645,172.561752 1886.341797,174.022766 1887.436646,174.058746 
	C1894.073364,174.276871 1900.720703,174.167404 1907.607422,174.167404 
	C1907.808594,172.399460 1907.971558,170.966583 1908.222656,168.758499 
	C1912.789062,177.900055 1920.475098,172.867203 1927.512085,174.413544 
	C1927.512085,165.359268 1927.512085,156.934921 1927.512329,148.013092 
z"/>
<path fill="#0158A0" opacity="1.000000" stroke="none" 
	d="
M597.000488,262.874542 
	C596.257080,264.329285 595.538818,266.108765 594.767212,266.132202 
	C587.607361,266.349548 580.431946,266.414062 573.278320,266.113312 
	C572.143799,266.065643 570.444336,264.138519 570.113342,262.805359 
	C568.113403,254.751358 566.435608,246.617371 564.570068,238.146622 
	C562.875366,238.070572 561.255615,237.937424 559.635620,237.934418 
	C540.636230,237.899124 521.636047,237.966202 502.638245,237.783752 
	C499.333221,237.752029 497.617493,238.512756 496.497589,241.856750 
	C494.071106,249.102234 491.227295,256.217346 488.274292,263.268585 
	C487.735901,264.554199 485.878601,266.128235 484.614716,266.141968 
	C468.117615,266.320831 451.617767,266.245544 435.118622,266.211639 
	C434.675568,266.210724 434.233002,265.957184 433.282593,265.665863 
	C436.626038,257.948395 439.860352,250.348511 443.200317,242.795319 
	C465.121490,193.221909 487.171173,143.704880 508.919556,94.055862 
	C513.710205,83.119438 521.274353,76.876221 533.266541,76.720375 
	C547.584045,76.534309 561.905823,76.676498 576.852112,76.676498 
	C578.468750,83.717857 580.183167,90.930252 581.775940,98.169426 
	C586.637512,120.265793 591.473816,142.367783 596.251770,164.482346 
	C596.738037,166.733154 596.966614,169.083435 596.970154,171.388062 
	C597.016479,201.720230 597.000977,232.052490 597.000488,262.874542 
M519.912292,181.377808 
	C517.721436,187.056564 515.530640,192.735306 513.216675,198.733124 
	C527.887024,198.733124 541.793823,198.733124 555.999451,198.733124 
	C550.892517,175.288406 545.845215,152.117355 540.593323,128.006958 
	C533.553589,146.099442 526.834717,163.367233 519.912292,181.377808 
z"/>
<path fill="#0258A1" opacity="1.000000" stroke="none" 
	d="
M436.357239,199.642181 
	C438.521973,224.812744 424.273254,247.328384 398.994049,258.823517 
	C378.121429,268.314850 355.991943,270.684479 333.527740,268.305389 
	C320.043304,266.877258 306.776245,263.382721 293.418610,260.780396 
	C289.627533,260.041840 288.598114,258.168060 289.461945,254.058746 
	C291.685150,243.482834 293.213776,232.761185 295.038452,222.100937 
	C295.339325,220.342972 295.733551,218.600967 295.961090,217.467209 
	C306.755554,220.872147 316.985596,225.482193 327.668335,227.096481 
	C339.355835,228.862625 351.499481,228.480103 363.366730,227.758514 
	C368.106140,227.470352 373.199371,224.499863 377.140930,221.464188 
	C384.103943,216.101456 384.521881,206.825745 377.926788,201.025436 
	C372.885498,196.591675 366.763489,193.304520 360.879547,189.930511 
	C352.235382,184.973740 342.986420,180.988419 334.672607,175.552963 
	C295.378571,149.862900 309.034729,109.268074 333.593323,91.398705 
	C349.012970,80.179008 366.600281,75.186928 385.299347,73.540840 
	C405.289642,71.781090 424.797455,74.040428 444.132355,80.972183 
	C441.783173,94.696815 439.467499,108.225609 437.093872,122.092972 
	C421.343567,114.499268 405.207733,111.583954 388.505066,113.139641 
	C382.554596,113.693871 376.302917,115.470642 371.073364,118.315582 
	C362.120056,123.186325 361.316986,132.551392 369.466034,138.663895 
	C376.579041,143.999283 384.687714,148.111847 392.656708,152.175964 
	C403.513336,157.712723 414.333679,163.192535 423.032837,171.980606 
	C430.527893,179.552338 435.426361,188.404480 436.357239,199.642181 
z"/>
<path fill="#0258A0" opacity="1.000000" stroke="none" 
	d="
M34.026955,102.005157 
	C65.309662,118.705086 88.972244,142.953979 103.733383,176.040344 
	C106.098228,185.696808 108.194031,195.097519 110.484184,205.369965 
	C111.807579,202.160995 112.902344,199.619629 113.910675,197.044418 
	C129.115753,158.211731 144.344894,119.388359 159.437744,80.512077 
	C160.627335,77.447929 161.959320,76.182236 165.467285,76.236252 
	C180.790009,76.472214 196.118423,76.332680 211.444763,76.346466 
	C212.718903,76.347610 213.992950,76.475670 215.879410,76.577972 
	C211.452927,86.914185 207.237656,96.801514 202.987625,106.673882 
	C180.710815,158.420532 158.393204,210.149704 136.223923,261.942383 
	C134.922562,264.982666 133.567566,266.160583 130.137192,266.113068 
	C114.980553,265.902985 99.816277,265.890381 84.661209,266.163605 
	C80.806000,266.233124 79.258476,265.149628 78.222939,261.397522 
	C63.590363,208.379105 48.786957,155.407852 34.026955,102.005157 
z"/>
<path fill="#730C1F" opacity="1.000000" stroke="none" 
	d="
M1472.772583,243.970627 
	C1474.170410,266.334503 1454.061768,288.607056 1430.738037,289.437195 
	C1411.770630,290.112244 1392.759888,289.577545 1373.768433,289.558624 
	C1373.302246,289.558167 1372.836304,289.314240 1372.166748,289.126923 
	C1372.166748,257.711975 1372.166748,226.317093 1372.166748,194.049667 
	C1381.863159,202.869888 1393.232910,203.140457 1404.830566,202.977081 
	C1419.821167,202.765884 1434.817017,202.925598 1449.810547,202.925598 
	C1451.437988,202.925598 1453.065430,202.925583 1454.927734,202.925583 
	C1454.927734,199.072845 1454.927734,195.672440 1454.927734,192.654495 
	C1443.790894,193.785446 1432.917725,195.433365 1421.995850,195.871552 
	C1405.529297,196.532166 1392.731934,183.875565 1393.103149,168.197876 
	C1393.483276,152.144363 1406.863892,140.082047 1423.477417,141.441879 
	C1433.888428,142.294006 1444.224731,144.056473 1454.892700,145.449432 
	C1454.993652,144.383530 1455.114868,143.101501 1455.654297,141.551025 
	C1456.377686,141.998459 1456.845825,142.688568 1456.963867,143.434082 
	C1458.535278,153.366150 1460.047974,163.307510 1461.594360,173.243561 
	C1463.723877,186.927170 1465.854614,200.610657 1468.013550,214.289658 
	C1469.575684,224.187149 1471.184570,234.077240 1472.772583,243.970627 
z"/>
<path fill="#10559D" opacity="1.000000" stroke="none" 
	d="
M1359.678345,52.993229 
	C1359.748413,54.151825 1359.879761,55.310421 1359.879761,56.469025 
	C1359.882080,117.022171 1359.873169,177.575302 1359.615356,238.717377 
	C1359.179443,239.538589 1359.024780,239.789948 1358.641113,239.771210 
	C1357.405762,233.630432 1356.399780,227.783752 1355.460938,221.926315 
	C1352.616699,204.181244 1349.877319,186.418915 1346.939819,168.689392 
	C1345.245117,158.460739 1343.246826,148.282410 1341.385254,138.081421 
	C1341.296631,136.806290 1341.208008,135.531143 1341.115601,134.201050 
	C1329.345825,134.201050 1317.763550,134.201050 1305.759399,134.201050 
	C1305.759399,146.912048 1305.606934,159.357910 1305.807495,171.798080 
	C1305.969238,181.831161 1302.759277,189.946869 1293.232666,194.203659 
	C1283.207764,198.683090 1273.692505,196.976532 1265.217651,190.116745 
	C1260.603394,186.381714 1258.231445,181.561844 1258.267944,175.356949 
	C1258.419556,149.559113 1258.337769,123.759911 1258.776855,97.430557 
	C1285.797974,84.979385 1312.355835,72.996155 1338.988770,61.181835 
	C1345.763062,58.176731 1352.775391,55.708267 1359.678345,52.993229 
z"/>
<path fill="#0258A1" opacity="1.000000" stroke="none" 
	d="
M215.989914,199.001862 
	C223.002213,157.827072 229.977722,117.085205 236.960617,76.300171 
	C254.292130,76.300171 271.075714,76.300171 288.701172,76.300171 
	C277.899292,139.654007 267.141602,202.748642 256.364105,265.959534 
	C239.033585,265.959534 222.125214,265.959534 204.604492,265.959534 
	C208.425674,243.560089 212.189392,221.497421 215.989914,199.001862 
z"/>
<path fill="#C80402" opacity="1.000000" stroke="none" 
	d="
M913.030090,155.180023 
	C913.059692,141.310135 917.210144,128.303680 922.372559,115.752220 
	C929.034668,99.554695 937.952087,84.578949 950.457703,72.033661 
	C951.606873,70.880814 953.019592,69.990730 954.653687,68.911583 
	C969.976135,83.648552 980.731323,101.154480 987.798767,120.903366 
	C990.185730,127.573395 991.771423,134.530182 993.749878,142.026260 
	C991.516235,147.460083 989.256042,152.223572 986.558716,156.903168 
	C985.843506,153.716003 985.565308,150.612747 985.166504,146.164383 
	C980.672180,148.106812 976.658020,149.841721 972.670593,151.565048 
	C972.412964,150.383682 972.078735,148.851074 971.818542,147.657806 
	C967.352661,147.657806 963.289551,147.657806 959.304382,147.657806 
	C959.304382,163.134811 959.304382,178.204697 959.304382,193.476608 
	C963.966248,193.476608 968.361938,193.476608 973.182739,193.476608 
	C973.182739,185.263535 973.139526,177.315308 973.196838,169.367813 
	C973.240417,163.320740 975.357483,160.969604 981.339600,160.195038 
	C982.973816,159.983414 984.634949,159.979431 986.200134,160.267090 
	C986.149780,161.441757 986.182983,162.229462 986.140381,163.257385 
	C986.116699,163.657242 986.168701,163.816910 986.152222,164.389099 
	C986.125732,173.588943 990.315735,180.462891 996.132446,186.586487 
	C992.770203,212.073563 984.501099,235.704285 969.182068,256.549500 
	C964.761597,262.564697 959.712646,268.118073 954.854614,274.187195 
	C954.404236,274.626465 954.051147,274.761719 953.418518,274.940979 
	C948.676025,269.081482 944.177795,263.204193 939.756287,257.269775 
	C924.885071,237.310287 916.045898,214.932892 912.961975,190.253799 
	C912.737427,188.456924 912.357117,186.679489 912.339600,184.627594 
	C919.416382,193.144867 928.325073,196.378906 939.064026,193.935760 
	C946.723022,192.193298 951.993103,187.412766 954.684265,179.366455 
	C948.691650,179.666336 942.898438,180.349274 937.376526,181.961456 
	C930.868042,183.861725 924.545044,181.330933 922.667114,175.053864 
	C934.006531,175.053864 945.270813,175.053864 956.470032,175.053864 
	C960.114441,159.762009 946.979187,145.376160 931.048157,146.525467 
	C923.753601,147.051697 918.413086,151.007385 913.030090,155.180023 
z"/>
<path fill="#043960" opacity="1.000000" stroke="none" 
	d="
M1341.295410,138.538574 
	C1343.246826,148.282410 1345.245117,158.460739 1346.939819,168.689392 
	C1349.877319,186.418915 1352.616699,204.181244 1355.460938,221.926315 
	C1356.399780,227.783752 1357.405762,233.630432 1358.664551,240.115662 
	C1359.229614,241.789841 1359.511230,242.830414 1359.792847,243.870972 
	C1359.378906,247.758759 1359.450806,251.775116 1358.462158,255.510788 
	C1355.188599,267.878876 1347.516846,277.026062 1336.619995,283.513733 
	C1329.599243,287.693726 1321.980713,289.682190 1313.762939,289.635071 
	C1297.098877,289.539490 1280.433838,289.607178 1263.769287,289.607513 
	C1262.138794,289.607544 1260.508179,289.607513 1258.592529,289.607513 
	C1258.592529,259.386414 1258.592529,229.677521 1258.592529,199.656540 
	C1262.652954,201.624771 1266.349976,203.846588 1270.331665,205.274948 
	C1291.154175,212.744659 1310.715088,209.552155 1328.745850,197.236542 
	C1337.227417,191.443375 1341.468384,183.081985 1341.228760,172.489761 
	C1340.976318,161.330612 1341.193604,150.160828 1341.295410,138.538574 
z"/>
<path fill="#156744" opacity="1.000000" stroke="none" 
	d="
M1587.413452,243.909637 
	C1588.898193,260.603516 1577.376709,278.596863 1559.962769,285.794373 
	C1554.990234,287.849609 1549.409058,289.303894 1544.067505,289.436249 
	C1526.089600,289.881775 1508.093994,289.612823 1490.105103,289.594360 
	C1489.141968,289.593384 1488.179077,289.383118 1487.036133,289.249207 
	C1487.036133,260.605682 1487.036133,232.153809 1487.036133,202.928177 
	C1488.696533,202.928177 1490.440063,202.928192 1492.183594,202.928177 
	C1512.004639,202.927948 1531.832764,203.217148 1551.641602,202.726974 
	C1556.685181,202.602158 1562.449341,201.134064 1566.523560,198.317673 
	C1576.518066,191.408707 1574.123291,176.176086 1562.788696,170.981445 
	C1561.140015,170.225830 1559.429810,169.604401 1556.983398,168.610077 
	C1564.669678,166.412384 1569.051392,161.755646 1571.265259,154.674149 
	C1576.902222,184.385132 1582.157837,214.147385 1587.413452,243.909637 
z"/>
<path fill="#349A49" opacity="1.000000" stroke="none" 
	d="
M1587.547119,243.465973 
	C1582.157837,214.147385 1576.902222,184.385132 1571.402832,154.336304 
	C1570.940430,140.358139 1564.494873,133.949890 1550.873779,133.940140 
	C1529.765747,133.925018 1508.657715,133.936142 1487.041016,133.936142 
	C1487.041016,121.393639 1487.041016,109.163422 1487.588623,96.478195 
	C1489.250977,95.753540 1490.440186,95.650459 1491.469727,95.189980 
	C1517.819458,83.405159 1544.164551,71.610115 1570.477905,59.744293 
	C1575.722046,57.379459 1580.832886,54.718761 1586.005127,52.194481 
	C1586.578247,53.445431 1587.616455,54.685181 1587.646729,55.949165 
	C1587.810547,62.763096 1587.725952,69.583054 1587.724243,76.400932 
	C1587.710205,131.941391 1587.695312,187.481857 1587.547119,243.465973 
z"/>
<path fill="#B42137" opacity="1.000000" stroke="none" 
	d="
M1472.885254,243.517136 
	C1471.184570,234.077240 1469.575684,224.187149 1468.013550,214.289658 
	C1465.854614,200.610657 1463.723877,186.927170 1461.594360,173.243561 
	C1460.047974,163.307510 1458.535278,153.366150 1456.963867,143.434082 
	C1456.845825,142.688568 1456.377686,141.998459 1455.734619,141.143433 
	C1455.249634,138.857147 1455.102417,136.710037 1454.911743,133.931564 
	C1453.177368,133.931564 1451.398682,133.931564 1449.619873,133.931564 
	C1434.454224,133.931564 1419.284546,134.141159 1404.124023,133.862625 
	C1392.803589,133.654633 1381.798218,134.059280 1371.989136,143.206680 
	C1371.989136,127.081627 1371.989136,112.495346 1372.430298,97.401649 
	C1388.960938,89.725754 1405.073853,82.609467 1421.133301,75.374512 
	C1438.094360,67.733437 1455.004517,59.979290 1471.936890,52.274513 
	C1472.289917,53.913353 1472.950195,55.551952 1472.951538,57.191116 
	C1473.004639,119.148598 1472.997314,181.106125 1472.885254,243.517136 
z"/>
<path fill="#1A76CB" opacity="1.000000" stroke="none" 
	d="
M1359.528687,52.610268 
	C1352.775391,55.708267 1345.763062,58.176731 1338.988770,61.181835 
	C1312.355835,72.996155 1285.797974,84.979385 1258.893555,96.980560 
	C1257.076904,73.442505 1274.336548,53.356907 1298.480713,52.305832 
	C1318.742920,51.423767 1339.076904,52.190548 1359.528687,52.610268 
z"/>
<path fill="#E21039" opacity="1.000000" stroke="none" 
	d="
M1471.486084,52.156620 
	C1455.004517,59.979290 1438.094360,67.733437 1421.133301,75.374512 
	C1405.073853,82.609467 1388.960938,89.725754 1372.523926,96.940430 
	C1371.105103,71.659958 1388.988525,52.518005 1414.598877,52.091747 
	C1433.406128,51.778721 1452.222778,52.035732 1471.486084,52.156620 
z"/>
<path fill="#1DCC3A" opacity="1.000000" stroke="none" 
	d="
M1585.541016,52.111450 
	C1580.832886,54.718761 1575.722046,57.379459 1570.477905,59.744293 
	C1544.164551,71.610115 1517.819458,83.405159 1491.469727,95.189980 
	C1490.440186,95.650459 1489.250977,95.753540 1487.769043,96.044510 
	C1486.597900,71.512169 1504.624023,52.551247 1529.706421,52.099903 
	C1548.157593,51.767883 1566.619629,52.030693 1585.541016,52.111450 
z"/>
<path fill="#176846" opacity="1.000000" stroke="none" 
	d="
M1522.937988,170.994080 
	C1525.423828,170.997986 1527.425171,170.919769 1529.417603,171.020966 
	C1535.807739,171.345459 1541.219360,176.694092 1541.449341,182.836960 
	C1541.670410,188.742325 1536.921265,194.806671 1530.654785,195.185150 
	C1522.065674,195.703918 1513.421509,195.314835 1504.480591,195.314835 
	C1504.480591,187.214096 1504.480591,179.348892 1504.480591,170.994080 
	C1510.556152,170.994080 1516.502808,170.994080 1522.937988,170.994080 
z"/>
<path fill="#196947" opacity="1.000000" stroke="none" 
	d="
M1517.996826,141.150421 
	C1521.810425,141.155563 1525.135742,141.029907 1528.446777,141.192917 
	C1535.435547,141.536896 1540.973511,147.105942 1540.937500,153.578857 
	C1540.900391,160.266586 1535.621338,165.026993 1528.038574,165.083679 
	C1520.268311,165.141785 1512.497192,165.096573 1504.441406,165.096573 
	C1504.441406,157.157471 1504.441406,149.587387 1504.441406,141.150406 
	C1508.710571,141.150406 1513.106323,141.150406 1517.996826,141.150421 
z"/>
<path fill="#0B75D2" opacity="1.000000" stroke="none" 
	d="
M1746.969360,167.919128 
	C1746.969360,159.613281 1746.969360,151.307449 1746.969360,142.342529 
	C1749.854248,142.342529 1752.672974,142.029694 1755.361572,142.485062 
	C1756.562500,142.688416 1757.954834,144.248383 1758.477661,145.515594 
	C1760.248291,149.807755 1761.669312,154.244232 1763.553223,159.553574 
	C1765.122192,155.272095 1766.873413,151.877029 1767.565186,148.278320 
	C1768.567383,143.064194 1771.383179,141.419647 1776.281372,142.263184 
	C1777.408813,142.457336 1778.575806,142.421692 1780.028564,142.510361 
	C1780.028564,151.398605 1780.028564,160.156174 1780.028564,169.306824 
	C1778.119141,169.306824 1776.234375,169.306824 1773.619629,169.306824 
	C1773.619629,164.054245 1773.619629,158.742081 1773.619629,153.429932 
	C1773.210815,153.377411 1772.802002,153.324890 1772.393188,153.272369 
	C1770.790039,157.724197 1769.400024,162.272156 1767.460205,166.572083 
	C1766.838257,167.950882 1764.818726,169.359238 1763.334839,169.479782 
	C1762.154419,169.575684 1760.224731,167.992249 1759.656372,166.701447 
	C1757.746582,162.363693 1756.296997,157.823318 1753.700439,153.471786 
	C1753.700439,158.622665 1753.700439,163.773560 1753.700439,169.423004 
	C1751.221680,169.423004 1749.321411,169.423004 1747.218750,168.874725 
	C1747.016602,168.326447 1746.969360,167.919128 1746.969360,167.919128 
z"/>
<path fill="#0F77D3" opacity="1.000000" stroke="none" 
	d="
M1897.001099,168.007050 
	C1897.001099,159.695633 1897.001099,151.384216 1897.001099,142.844116 
	C1901.890747,141.522583 1905.884644,141.640167 1908.479614,147.087311 
	C1910.241821,150.786316 1912.872314,154.071579 1915.881104,158.728226 
	C1915.881104,152.634796 1915.881104,147.810257 1915.881104,142.636810 
	C1918.364502,142.636810 1920.280518,142.636810 1922.598022,142.636810 
	C1922.598022,151.359650 1922.598022,160.231369 1922.598022,169.227325 
	C1917.501099,170.771057 1913.773926,169.694321 1911.266846,164.509857 
	C1909.504517,160.865036 1906.925293,157.615158 1903.756104,154.421768 
	C1903.756104,159.281799 1903.756104,164.141830 1903.756104,169.405594 
	C1901.291138,169.405594 1899.378540,169.405594 1897.230957,168.907990 
	C1896.995728,168.410370 1897.001099,168.007050 1897.001099,168.007050 
z"/>
<path fill="#1078D3" opacity="1.000000" stroke="none" 
	d="
M1803.618408,169.714264 
	C1797.346558,169.715408 1791.534058,169.715408 1785.320923,169.715408 
	C1785.320923,160.558578 1785.320923,151.697952 1785.320923,142.554443 
	C1792.450684,142.554443 1799.519897,142.554443 1806.776123,142.554443 
	C1806.776123,144.471176 1806.776123,146.099457 1806.776123,148.549149 
	C1802.988647,148.549149 1799.243530,148.662292 1795.508667,148.513977 
	C1792.421631,148.391373 1791.129150,149.400635 1792.391846,153.007782 
	C1796.856812,153.007782 1801.450317,153.007782 1806.310791,153.007782 
	C1806.310791,155.070953 1806.310791,156.661850 1806.310791,158.755829 
	C1801.690063,158.755829 1797.113281,158.755829 1792.220703,158.755829 
	C1792.220703,160.613083 1792.220703,161.969376 1792.220703,163.666656 
	C1797.182617,163.666656 1801.814941,163.666656 1806.811768,163.666656 
	C1806.413696,166.224319 1808.932495,169.496841 1803.618408,169.714264 
z"/>
<path fill="#0C75D2" opacity="1.000000" stroke="none" 
	d="
M1878.950928,211.107147 
	C1883.593994,211.170441 1887.727661,211.170441 1892.192139,211.170441 
	C1892.192139,213.293030 1892.192139,215.010010 1892.192139,216.937561 
	C1885.013184,216.937561 1878.070435,216.937561 1870.755615,216.937561 
	C1870.755615,208.124069 1870.755615,199.402328 1870.755615,190.327209 
	C1877.789673,190.327209 1884.843750,190.327209 1892.217896,190.327209 
	C1892.217896,192.020615 1892.217896,193.756104 1892.217896,196.028366 
	C1887.379517,196.028366 1882.632324,196.028366 1877.855957,196.028366 
	C1876.357544,201.786743 1880.254028,200.597763 1882.900024,200.703720 
	C1885.717285,200.816544 1888.542480,200.729111 1891.694092,200.729111 
	C1891.694092,202.672455 1891.694092,204.384842 1891.694092,206.548508 
	C1887.968628,206.548508 1884.330688,206.535004 1880.692993,206.552292 
	C1877.019531,206.569748 1876.426025,208.160141 1878.950928,211.107147 
z"/>
<path fill="#0B74D2" opacity="1.000000" stroke="none" 
	d="
M1857.747070,213.389587 
	C1855.475586,211.101471 1853.431274,209.112259 1851.386841,207.123047 
	C1850.942993,207.474548 1850.499146,207.826050 1850.055298,208.177551 
	C1850.055298,210.960144 1850.055298,213.742737 1850.055298,216.827332 
	C1847.807983,216.827332 1845.895996,216.827332 1843.584717,216.827332 
	C1843.584717,208.176498 1843.584717,199.469223 1843.584717,190.190414 
	C1849.173828,190.190414 1854.936523,189.839996 1860.630493,190.314438 
	C1864.383667,190.627151 1866.902954,193.374115 1867.585327,197.202042 
	C1868.263428,201.005417 1866.816162,204.042389 1863.510742,206.117905 
	C1862.713745,206.618256 1861.872070,207.047134 1860.808105,207.645416 
	C1863.379883,210.631744 1865.812012,213.455948 1868.580811,216.671097 
	C1863.938599,217.553925 1860.288452,217.845413 1857.747070,213.389587 
M1860.814941,199.395920 
	C1858.836670,193.126938 1853.988037,197.264771 1850.369995,196.001389 
	C1850.369995,198.255981 1850.369995,199.950195 1850.369995,202.776291 
	C1854.139648,201.800262 1857.326294,200.975159 1860.814941,199.395920 
z"/>
<path fill="#0D76D2" opacity="1.000000" stroke="none" 
	d="
M1825.247070,165.831360 
	C1823.140747,163.459808 1821.269287,161.374664 1819.397827,159.289505 
	C1818.890625,159.556732 1818.383301,159.823975 1817.876099,160.091202 
	C1817.694092,163.100372 1817.512085,166.109543 1817.313599,169.390137 
	C1815.139404,169.390137 1813.254517,169.390137 1811.071167,169.390137 
	C1811.071167,160.486313 1811.071167,151.757812 1811.071167,142.509171 
	C1816.497803,142.509171 1821.912354,142.269730 1827.293823,142.588043 
	C1831.302368,142.825150 1834.152222,145.214737 1834.910645,149.288788 
	C1835.682861,153.435989 1834.293091,156.814758 1830.378418,158.871826 
	C1829.838013,159.155777 1829.297485,159.439804 1828.284424,159.972229 
	C1830.949951,163.092453 1833.374023,165.930206 1836.249512,169.296249 
	C1831.615845,170.020920 1827.846436,170.534363 1825.247070,165.831360 
M1823.350464,154.163574 
	C1825.689209,154.114609 1829.156982,153.848938 1827.805298,151.001022 
	C1826.976318,149.254501 1822.648682,148.479874 1819.897827,148.492523 
	C1815.567261,148.512390 1817.784302,151.716873 1817.751099,154.164429 
	C1819.542358,154.164429 1821.005127,154.164429 1823.350464,154.163574 
z"/>
<path fill="#0D76D2" opacity="1.000000" stroke="none" 
	d="
M1896.647705,168.200348 
	C1897.001099,168.007050 1896.995728,168.410370 1897.014648,168.507599 
	C1893.001099,169.743042 1888.707764,172.083023 1886.630615,165.710007 
	C1886.370728,164.912598 1884.503540,164.086914 1883.472168,164.189529 
	C1879.185181,164.616089 1873.640991,161.707809 1871.531616,168.761887 
	C1871.242676,169.728149 1867.181641,169.566483 1863.860718,170.083847 
	C1867.862427,160.678864 1871.192505,152.216644 1875.192017,144.083664 
	C1875.851929,142.741577 1879.456055,142.392120 1881.679199,142.444580 
	C1883.016724,142.476151 1884.927490,143.886032 1885.527222,145.168945 
	C1888.543335,151.621780 1891.178467,158.251663 1894.032349,164.782242 
	C1894.595093,166.069641 1895.530762,167.194016 1896.647705,168.200348 
M1882.588379,155.303925 
	C1881.767212,153.528152 1880.946167,151.752380 1879.725952,149.113693 
	C1878.392456,152.633133 1877.482056,155.036163 1876.571533,157.439209 
	C1876.842407,157.902145 1877.113403,158.365082 1877.384277,158.828033 
	C1879.214722,157.916061 1881.045288,157.004105 1882.588379,155.303925 
z"/>
<path fill="#0D76D2" opacity="1.000000" stroke="none" 
	d="
M1746.620483,168.116760 
	C1746.969360,167.919128 1747.016602,168.326447 1747.041992,168.529846 
	C1742.803467,169.830215 1738.238892,171.864273 1736.428589,165.317993 
	C1732.000488,165.415787 1725.073853,163.853134 1723.672119,165.962234 
	C1720.884521,170.156586 1718.289429,169.774750 1714.102539,169.394058 
	C1717.795410,160.686874 1721.117432,152.218292 1725.108398,144.077713 
	C1725.764771,142.738831 1729.370605,142.391357 1731.592651,142.444672 
	C1732.930420,142.476776 1734.841064,143.882660 1735.440674,145.164185 
	C1738.464111,151.625656 1741.103882,158.265472 1743.971191,164.801941 
	C1744.525635,166.065887 1745.494141,167.148254 1746.620483,168.116760 
M1730.737793,150.888443 
	C1730.164551,150.887665 1729.170288,150.707764 1729.082642,150.913666 
	C1728.148071,153.109802 1727.357300,155.367050 1726.411499,157.918793 
	C1729.011475,157.918793 1730.933594,157.918793 1733.436157,157.918793 
	C1732.523193,155.552719 1731.765503,153.589233 1730.737793,150.888443 
z"/>
<path fill="#0873D1" opacity="1.000000" stroke="none" 
	d="
M1779.641846,206.523254 
	C1776.366211,206.523102 1773.543823,206.523102 1770.202881,206.523102 
	C1770.115601,208.052124 1770.039307,209.388504 1769.939941,211.127731 
	C1774.979370,211.127731 1779.585083,211.127731 1784.698486,211.127731 
	C1784.791992,213.173431 1784.869507,214.871353 1784.960449,216.863434 
	C1777.526245,216.863434 1770.474854,216.863434 1763.190918,216.863434 
	C1763.190918,207.909225 1763.190918,199.185364 1763.190918,190.233932 
	C1770.481323,190.233932 1777.543213,190.233932 1784.781982,190.233932 
	C1784.781982,192.096878 1784.781982,193.713974 1784.781982,195.833511 
	C1780.075928,195.833511 1775.338379,195.833511 1770.668701,195.833511 
	C1769.214722,199.208435 1769.493652,200.970398 1773.306885,200.821289 
	C1776.787354,200.685196 1780.277100,200.792435 1783.914307,200.792435 
	C1785.407593,204.774719 1784.846802,207.047424 1779.641846,206.523254 
z"/>
<path fill="#0B74D2" opacity="1.000000" stroke="none" 
	d="
M1913.674438,189.980133 
	C1915.284912,189.980164 1916.440918,189.980164 1917.635132,189.980164 
	C1917.479492,195.097244 1914.841553,196.737396 1910.233154,196.139511 
	C1908.433838,195.906067 1906.510498,195.815674 1904.771118,196.215134 
	C1903.581909,196.488205 1902.613281,197.721680 1901.546143,198.525864 
	C1902.673096,199.276566 1903.718994,200.442795 1904.945679,200.682220 
	C1906.871704,201.058197 1908.925049,200.721375 1910.914917,200.842041 
	C1915.866455,201.142288 1918.802368,204.111572 1918.776855,208.675003 
	C1918.750488,213.420166 1915.583618,216.761353 1910.742676,217.101151 
	C1909.583130,217.182526 1908.414429,217.140762 1907.249878,217.142029 
	C1903.597046,217.146011 1899.944336,217.143494 1895.933838,217.143494 
	C1895.933838,215.209473 1895.933838,213.496796 1895.933838,211.192215 
	C1900.174683,211.192215 1904.287598,211.346848 1908.375366,211.093658 
	C1909.533203,211.021957 1910.617188,209.759811 1911.735107,209.043610 
	C1910.621948,208.325195 1909.586548,207.225815 1908.377075,206.978729 
	C1906.619019,206.619568 1904.728760,206.971451 1902.906372,206.849747 
	C1897.963745,206.519714 1895.244995,204.049744 1894.867065,199.677032 
	C1894.432861,194.653854 1896.772095,191.132614 1901.773682,190.379578 
	C1905.524170,189.814941 1909.400024,190.082870 1913.674438,189.980133 
z"/>
<path fill="#0A74D2" opacity="1.000000" stroke="none" 
	d="
M1940.624390,195.108887 
	C1936.961914,195.673416 1933.501709,195.711868 1930.102783,196.187836 
	C1928.724121,196.380875 1927.478760,197.526886 1926.172729,198.239288 
	C1927.530884,199.087982 1928.793579,200.279510 1930.273315,200.690933 
	C1931.817749,201.120255 1933.573853,200.736588 1935.232422,200.816055 
	C1940.525513,201.069687 1943.094971,203.511612 1943.214966,208.327225 
	C1943.347534,213.647598 1940.525635,216.886490 1935.244019,217.075974 
	C1930.447266,217.248062 1925.639404,217.112411 1920.477783,217.112411 
	C1920.477783,215.154343 1920.477783,213.457245 1920.477783,211.194916 
	C1924.691528,211.194916 1928.812988,211.344849 1932.910645,211.098190 
	C1934.053223,211.029434 1935.125366,209.788452 1936.229736,209.085190 
	C1935.161133,208.352234 1934.175293,207.223373 1933.004639,206.979218 
	C1931.251099,206.613434 1929.360474,206.972366 1927.541260,206.840530 
	C1922.551636,206.478928 1919.616211,203.713791 1919.280029,199.192490 
	C1918.948120,194.732330 1921.937378,190.769882 1926.884033,190.307739 
	C1931.979736,189.831665 1937.154297,190.202011 1942.751709,190.202011 
	C1942.074341,191.826080 1941.462891,193.292404 1940.624390,195.108887 
z"/>
<path fill="#0873D1" opacity="1.000000" stroke="none" 
	d="
M1815.936401,209.935364 
	C1815.936401,203.160278 1815.936401,196.877838 1815.936401,190.157043 
	C1821.792358,190.157043 1827.396606,189.817688 1832.937744,190.263367 
	C1837.450684,190.626373 1840.313110,194.315613 1840.378540,198.849106 
	C1840.446167,203.533142 1838.352783,206.976562 1833.654175,208.018234 
	C1830.320190,208.757324 1826.828491,208.784454 1822.999756,209.170425 
	C1822.999756,211.631241 1822.999756,214.050369 1822.999756,216.803925 
	C1820.545654,216.803925 1818.502808,216.803925 1815.936401,216.803925 
	C1815.936401,214.651016 1815.936401,212.539520 1815.936401,209.935364 
M1830.004517,202.338470 
	C1831.147461,201.078873 1832.290405,199.819275 1833.433350,198.559692 
	C1830.212646,197.439362 1826.991943,196.319031 1823.296753,195.033661 
	C1823.296753,198.473618 1823.296753,200.320297 1823.296753,202.357620 
	C1825.502563,202.357620 1827.311646,202.357620 1830.004517,202.338470 
z"/>
<path fill="#0974D2" opacity="1.000000" stroke="none" 
	d="
M1789.944824,211.916840 
	C1792.113770,209.161789 1794.073608,206.694550 1796.331665,203.852081 
	C1792.929321,199.441269 1789.546265,195.055527 1786.118042,190.611099 
	C1794.145874,187.355713 1796.689575,193.913834 1800.519531,198.285583 
	C1804.414062,194.019943 1806.639893,187.271362 1814.644287,190.607208 
	C1811.293579,194.914810 1807.971924,199.185303 1804.523804,203.618195 
	C1807.885986,207.961990 1811.108521,212.125305 1814.375854,216.346527 
	C1806.486938,219.938110 1804.080811,213.596893 1800.429688,209.074829 
	C1796.650146,213.073029 1794.473389,219.959213 1786.567139,216.493332 
	C1787.633789,215.049606 1788.684814,213.627136 1789.944824,211.916840 
z"/>
<path fill="#0F77D2" opacity="1.000000" stroke="none" 
	d="
M1849.459473,163.204681 
	C1844.674927,148.291946 1852.510620,140.056763 1868.604492,142.863770 
	C1868.604492,144.584656 1868.604492,146.355530 1868.604492,148.939972 
	C1866.774414,148.939972 1864.862061,149.045853 1862.965332,148.918808 
	C1858.459595,148.617020 1855.544922,150.319656 1854.979004,155.049347 
	C1854.410156,159.802307 1856.302612,162.353119 1861.168213,163.546082 
	C1861.781006,163.696335 1862.395142,163.841599 1863.012817,163.990204 
	C1861.382446,170.189301 1858.176514,171.386154 1853.201904,167.634750 
	C1851.791992,166.571625 1850.821533,164.925674 1849.459473,163.204681 
z"/>
<path fill="#1178D3" opacity="1.000000" stroke="none" 
	d="
M1837.871094,153.026764 
	C1837.871094,149.385025 1837.871094,146.238022 1837.871094,142.678421 
	C1840.126099,142.678421 1842.148560,142.678421 1844.522461,142.678421 
	C1844.522461,151.424042 1844.522461,160.147125 1844.522461,169.295502 
	C1842.555542,169.295502 1840.524536,169.295502 1837.871094,169.295502 
	C1837.871094,164.036453 1837.871094,158.778992 1837.871094,153.026764 
z"/>
<path fill="#1A76CB" opacity="1.000000" stroke="none" 
	d="
M1359.864624,243.476334 
	C1359.511230,242.830414 1359.229614,241.789841 1358.924561,240.404816 
	C1359.024780,239.789948 1359.179443,239.538589 1359.549316,239.185822 
	C1359.801147,240.404129 1359.868774,241.742905 1359.864624,243.476334 
z"/>
<path fill="#FFFDFB" opacity="1.000000" stroke="none" 
	d="
M986.216187,163.017181 
	C986.182983,162.229462 986.149780,161.441757 986.419556,160.047668 
	C986.813660,158.623230 986.904724,157.805130 986.995789,156.987061 
	C989.256042,152.223572 991.516235,147.460083 993.907104,142.384705 
	C1008.924683,127.104874 1029.166138,130.100998 1039.969238,140.160812 
	C1044.427124,144.311874 1047.688965,149.156219 1049.189087,155.842178 
	C1043.963379,155.842178 1039.192749,155.986496 1034.442139,155.741882 
	C1033.236694,155.679810 1031.840942,154.604492 1030.964478,153.612915 
	C1024.264771,146.032562 1014.109131,145.184799 1007.056885,151.731598 
	C1000.430908,157.882721 1000.337952,168.008163 1006.848389,174.442780 
	C1013.659546,181.174667 1023.945251,180.573547 1030.762695,173.190964 
	C1031.752075,172.119659 1033.354858,171.078979 1034.730957,170.998367 
	C1039.365479,170.726868 1044.026001,170.895081 1049.282593,170.895081 
	C1046.301025,181.466476 1040.092285,188.622742 1030.459717,192.456024 
	C1018.259155,197.311356 1006.964417,195.061722 996.454407,186.743484 
	C990.315735,180.462891 986.125732,173.588943 986.289734,164.297256 
	C986.678650,163.457916 986.585449,163.199356 986.216187,163.017181 
z"/>
<path fill="#FFFDFC" opacity="1.000000" stroke="none" 
	d="
M1179.378662,166.000122 
	C1179.378784,175.447922 1179.378784,184.395737 1179.378784,194.142624 
	C1174.281982,192.404419 1168.908813,196.522110 1164.995605,191.125504 
	C1152.845093,196.795898 1143.572876,195.380524 1136.402954,186.686752 
	C1129.034058,177.751785 1128.617554,164.816284 1135.404297,155.674316 
	C1142.183838,146.542114 1152.009155,144.365356 1164.921387,149.443573 
	C1164.921387,144.097305 1164.921387,138.912048 1164.921387,133.357788 
	C1169.805908,133.357788 1174.198975,133.357788 1179.378540,133.357788 
	C1179.378540,144.013657 1179.378540,154.756882 1179.378662,166.000122 
M1165.966064,169.703537 
	C1164.214966,163.215271 1160.601929,159.997086 1155.162964,160.080963 
	C1150.321777,160.155609 1146.070068,163.495407 1145.007690,168.058136 
	C1143.642700,173.920654 1147.223633,179.592880 1153.094360,180.867401 
	C1159.566040,182.272400 1164.723877,178.128784 1165.966064,169.703537 
z"/>
<path fill="#FFFDFB" opacity="1.000000" stroke="none" 
	d="
M1065.025146,193.193359 
	C1055.387085,188.636978 1050.332031,181.134018 1050.077637,171.013992 
	C1049.839111,161.529709 1053.873779,153.536301 1062.530762,149.321289 
	C1066.720825,147.281128 1072.518188,145.951370 1076.757690,147.175430 
	C1084.192017,149.321991 1091.271118,145.322281 1098.710571,147.758331 
	C1098.710571,162.754791 1098.710571,177.966278 1098.710571,193.851624 
	C1093.862915,192.712219 1088.502808,196.130661 1084.128906,191.017471 
	C1078.417969,194.541367 1072.162842,196.061890 1065.025146,193.193359 
M1082.949097,177.424393 
	C1086.561401,171.613953 1086.199341,166.409775 1081.923218,162.678696 
	C1077.861816,159.134949 1071.792358,159.146622 1067.785400,162.705856 
	C1063.392212,166.608170 1062.871216,172.504547 1066.522583,176.996994 
	C1070.536133,181.935028 1076.252319,182.290131 1082.949097,177.424393 
z"/>
<path fill="#FEFBF7" opacity="1.000000" stroke="none" 
	d="
M1118.473877,151.898819 
	C1122.338623,149.934341 1125.800415,147.999878 1130.376953,145.442398 
	C1130.376953,151.396484 1130.376953,155.442337 1130.376953,159.793030 
	C1128.964600,159.931122 1127.511719,160.003448 1126.081787,160.225357 
	C1120.495972,161.092255 1118.588379,163.175354 1118.527710,168.828995 
	C1118.440308,176.952591 1118.505371,185.077820 1118.505371,193.492737 
	C1113.506104,193.492737 1109.098145,193.492737 1104.371094,193.492737 
	C1104.371094,178.254654 1104.371094,163.164291 1104.371094,147.640320 
	C1108.343994,147.640320 1112.414307,147.640320 1116.846680,147.640320 
	C1117.198486,148.872650 1117.634521,150.400742 1118.473877,151.898819 
z"/>
<path fill="#F8D2AB" opacity="1.000000" stroke="none" 
	d="
M1184.645752,189.089218 
	C1186.503662,189.316116 1187.947021,189.523911 1190.356812,189.870850 
	C1189.741699,191.083420 1189.182373,193.392044 1188.406006,193.467560 
	C1186.744629,193.629166 1184.970947,192.635849 1182.976807,192.035324 
	C1183.107300,191.763351 1182.676880,192.660675 1181.787109,194.515610 
	C1181.009644,191.038055 1179.752319,188.488602 1184.645752,189.089218 
z"/>
<path fill="#FFF8F8" opacity="1.000000" stroke="none" 
	d="
M787.749023,193.739792 
	C783.814575,193.738541 780.349915,193.738541 776.515015,193.738541 
	C776.515015,181.385086 776.515015,169.470627 776.515015,157.556168 
	C776.186707,157.479309 775.858459,157.402451 775.530151,157.325577 
	C774.402832,160.570114 773.263916,163.810684 772.150452,167.059967 
	C769.512878,174.756439 766.640320,182.385147 764.368103,190.188385 
	C763.338135,193.725632 761.264099,194.100067 758.449341,193.714706 
	C755.530151,193.315048 751.906250,195.437469 750.426270,190.353622 
	C747.596680,180.634430 744.115967,171.104752 740.899414,161.498459 
	C740.506165,160.324173 740.075134,159.162567 738.789856,158.153915 
	C738.789856,169.812134 738.789856,181.470352 738.789856,193.431244 
	C733.963196,193.431244 729.547974,193.431244 724.775757,193.431244 
	C724.775757,173.498642 724.775757,153.589844 724.775757,133.016495 
	C731.033691,133.016495 737.295227,132.826767 743.524048,133.193253 
	C744.631409,133.258423 746.054626,135.479996 746.564636,136.968704 
	C750.301331,147.876709 753.842529,158.851654 757.746460,170.721069 
	C762.037231,157.627335 766.047852,145.388580 770.063599,133.134003 
	C777.056152,133.134003 783.696533,133.134003 790.664856,133.134003 
	C790.809937,134.241470 791.075378,135.330643 791.076904,136.420181 
	C791.101807,154.080536 791.105774,171.740967 791.074707,189.401321 
	C791.071228,191.394653 791.910156,194.104507 787.749023,193.739792 
z"/>
<path fill="#FFFBFA" opacity="1.000000" stroke="none" 
	d="
M843.261169,161.006912 
	C843.261169,172.094131 843.261169,182.683075 843.261169,194.061356 
	C838.139160,192.489380 832.831787,196.363785 828.816956,191.132767 
	C815.700806,196.796860 806.597900,195.090057 799.406433,185.498260 
	C792.553772,176.358292 792.695862,163.933365 799.755676,154.963776 
	C806.625977,146.234955 817.050354,144.204834 828.388550,149.387512 
	C828.346802,148.895462 828.305054,148.403412 828.263306,147.911362 
	C833.063843,147.590408 837.864380,147.269455 843.261169,146.908646 
	C843.261169,151.953354 843.261169,156.231003 843.261169,161.006912 
M825.339294,179.077393 
	C830.353943,174.205994 831.246765,169.799591 828.192078,164.997925 
	C825.502625,160.770172 820.261230,158.975708 815.561401,160.673553 
	C809.879944,162.725998 806.943420,168.968475 809.242371,174.447708 
	C811.546448,179.939316 818.939026,183.257294 825.339294,179.077393 
z"/>
<path fill="#FEFBFB" opacity="1.000000" stroke="none" 
	d="
M913.015503,155.397247 
	C918.413086,151.007385 923.753601,147.051697 931.048157,146.525467 
	C946.979187,145.376160 960.114441,159.762009 956.470032,175.053864 
	C945.270813,175.053864 934.006531,175.053864 922.667114,175.053864 
	C924.545044,181.330933 930.868042,183.861725 937.376526,181.961456 
	C942.898438,180.349274 948.691650,179.666336 954.684265,179.366455 
	C951.993103,187.412766 946.723022,192.193298 939.064026,193.935760 
	C928.325073,196.378906 919.416382,193.144867 912.341858,184.209167 
	C907.380920,175.307068 906.637939,166.544083 912.255188,157.314331 
	C912.876648,156.648407 912.958740,156.358246 912.795837,155.998550 
	C912.795837,155.998550 913.000977,155.614487 913.015503,155.397247 
M925.155151,165.025589 
	C931.026245,165.025589 936.897400,165.025589 943.181030,165.025589 
	C938.593689,157.944580 929.535950,156.864838 924.513184,162.284454 
	C924.026855,162.809250 924.353333,164.087387 925.155151,165.025589 
z"/>
<path fill="#FFFAF9" opacity="1.000000" stroke="none" 
	d="
M881.852051,157.945908 
	C881.854980,158.770767 882.209839,159.934372 881.799133,160.360977 
	C880.162231,162.061188 869.770752,160.697220 868.102600,159.010101 
	C867.078369,157.974182 865.508240,157.060043 864.122253,156.963150 
	C863.343994,156.908722 861.588196,158.865402 861.764771,159.502701 
	C862.193298,161.049500 863.190247,162.999634 864.508240,163.621353 
	C867.173096,164.878464 870.250488,165.223709 873.072327,166.193405 
	C878.774902,168.152985 883.193481,171.426773 883.581970,178.069229 
	C883.964417,184.608551 880.812988,189.206146 875.204041,192.214798 
	C864.203125,198.115784 850.036255,193.701508 846.535278,183.310898 
	C846.226501,182.394577 846.183044,181.388855 845.917603,179.853745 
	C849.958191,179.853745 853.740479,179.729111 857.505127,179.931763 
	C858.596191,179.990494 859.618408,181.025681 860.704590,181.545593 
	C862.460938,182.386246 864.195007,183.530746 866.042542,183.782104 
	C866.680847,183.868958 868.554077,181.052933 868.272217,180.634277 
	C867.196899,179.037521 865.643799,177.560074 863.942810,176.643845 
	C862.234314,175.723587 860.118347,175.586060 858.213623,174.999298 
	C850.964417,172.766129 847.479370,168.840302 847.103638,162.567505 
	C846.723083,156.214828 850.529968,150.667511 857.128540,147.959457 
	C866.603882,144.070740 875.971619,146.982483 880.970337,155.989349 
	C881.286438,157.061279 881.569275,157.503586 881.852051,157.945908 
z"/>
<path fill="#FFF5F4" opacity="1.000000" stroke="none" 
	d="
M882.319092,157.897430 
	C881.569275,157.503586 881.286438,157.061279 880.991516,156.342728 
	C881.577515,153.341980 882.175720,150.617447 882.876404,147.426285 
	C883.903687,147.251465 885.473328,146.984344 887.542358,146.632217 
	C887.542358,142.294312 887.542358,137.886322 887.542358,133.238739 
	C892.455811,133.238739 896.863342,133.238739 901.762939,133.238739 
	C901.762939,137.787415 901.762939,142.201965 901.762939,146.908432 
	C903.964294,147.048965 905.704895,147.160080 907.674072,147.285782 
	C907.674072,150.823502 907.674072,154.084061 907.674072,157.696854 
	C905.960632,157.868546 904.214539,158.043503 902.022949,158.263092 
	C902.022949,169.793503 902.022949,181.369614 902.022949,193.346451 
	C897.059448,193.346451 892.529480,193.346451 887.529419,193.346451 
	C887.529419,181.711380 887.529419,170.139557 887.529419,158.306763 
	C885.663635,158.126678 884.224915,157.987823 882.319092,157.897430 
z"/>
<path fill="#C80402" opacity="1.000000" stroke="none" 
	d="
M912.625732,156.132767 
	C912.958740,156.358246 912.876648,156.648407 912.321411,156.954437 
	C912.140869,156.747940 912.261658,156.490326 912.625732,156.132767 
z"/>
<path fill="#FBFDFE" opacity="1.000000" stroke="none" 
	d="
M520.014038,181.006409 
	C526.834717,163.367233 533.553589,146.099442 540.593323,128.006958 
	C545.845215,152.117355 550.892517,175.288406 555.999451,198.733124 
	C541.793823,198.733124 527.887024,198.733124 513.216675,198.733124 
	C515.530640,192.735306 517.721436,187.056564 520.014038,181.006409 
z"/>
<path fill="#FEF7F6" opacity="1.000000" stroke="none" 
	d="
M986.558716,156.903152 
	C986.904724,157.805130 986.813660,158.623230 986.503174,159.660736 
	C984.634949,159.979431 982.973816,159.983414 981.339600,160.195038 
	C975.357483,160.969604 973.240417,163.320740 973.196838,169.367813 
	C973.139526,177.315308 973.182739,185.263535 973.182739,193.476608 
	C968.361938,193.476608 963.966248,193.476608 959.304382,193.476608 
	C959.304382,178.204697 959.304382,163.134811 959.304382,147.657806 
	C963.289551,147.657806 967.352661,147.657806 971.818542,147.657806 
	C972.078735,148.851074 972.412964,150.383682 972.670593,151.565048 
	C976.658020,149.841721 980.672180,148.106812 985.166504,146.164383 
	C985.565308,150.612747 985.843506,153.716003 986.558716,156.903152 
z"/>
<path fill="#FEF7F6" opacity="1.000000" stroke="none" 
	d="
M986.140442,163.257385 
	C986.585449,163.199356 986.678650,163.457916 986.358276,163.884705 
	C986.168701,163.816910 986.116699,163.657242 986.140442,163.257385 
z"/>
<path fill="#F1F7FC" opacity="1.000000" stroke="none" 
	d="
M1860.664062,199.772995 
	C1857.326294,200.975159 1854.139648,201.800262 1850.369995,202.776291 
	C1850.369995,199.950195 1850.369995,198.255981 1850.369995,196.001389 
	C1853.988037,197.264771 1858.836670,193.126938 1860.664062,199.772995 
z"/>
<path fill="#E3EFFA" opacity="1.000000" stroke="none" 
	d="
M1822.909180,154.164001 
	C1821.005127,154.164429 1819.542358,154.164429 1817.751099,154.164429 
	C1817.784302,151.716873 1815.567261,148.512390 1819.897827,148.492523 
	C1822.648682,148.479874 1826.976318,149.254501 1827.805298,151.001022 
	C1829.156982,153.848938 1825.689209,154.114609 1822.909180,154.164001 
z"/>
<path fill="#EEF5FC" opacity="1.000000" stroke="none" 
	d="
M1882.732056,155.698029 
	C1881.045288,157.004105 1879.214722,157.916061 1877.384277,158.828033 
	C1877.113403,158.365082 1876.842407,157.902145 1876.571533,157.439209 
	C1877.482056,155.036163 1878.392456,152.633133 1879.725952,149.113693 
	C1880.946167,151.752380 1881.767212,153.528152 1882.732056,155.698029 
z"/>
<path fill="#EDF5FC" opacity="1.000000" stroke="none" 
	d="
M1730.872803,151.257111 
	C1731.765503,153.589233 1732.523193,155.552719 1733.436157,157.918793 
	C1730.933594,157.918793 1729.011475,157.918793 1726.411499,157.918793 
	C1727.357300,155.367050 1728.148071,153.109802 1729.082642,150.913666 
	C1729.170288,150.707764 1730.164551,150.887665 1730.872803,151.257111 
z"/>
<path fill="#F2F8FD" opacity="1.000000" stroke="none" 
	d="
M1829.562500,202.348053 
	C1827.311646,202.357620 1825.502563,202.357620 1823.296753,202.357620 
	C1823.296753,200.320297 1823.296753,198.473618 1823.296753,195.033661 
	C1826.991943,196.319031 1830.212646,197.439362 1833.433350,198.559692 
	C1832.290405,199.819275 1831.147461,201.078873 1829.562500,202.348053 
z"/>
<path fill="#E97D06" opacity="1.000000" stroke="none" 
	d="
M1165.981445,170.102829 
	C1164.723877,178.128784 1159.566040,182.272400 1153.094360,180.867401 
	C1147.223633,179.592880 1143.642700,173.920654 1145.007690,168.058136 
	C1146.070068,163.495407 1150.321777,160.155609 1155.162964,160.080963 
	C1160.601929,159.997086 1164.214966,163.215271 1165.981445,170.102829 
z"/>
<path fill="#E97D07" opacity="1.000000" stroke="none" 
	d="
M1082.696533,177.705231 
	C1076.252319,182.290131 1070.536133,181.935028 1066.522583,176.996994 
	C1062.871216,172.504547 1063.392212,166.608170 1067.785400,162.705856 
	C1071.792358,159.146622 1077.861816,159.134949 1081.923218,162.678696 
	C1086.199341,166.409775 1086.561401,171.613953 1082.696533,177.705231 
z"/>
<path fill="#FF0D0D" opacity="1.000000" stroke="none" 
	d="
M825.028442,179.311737 
	C818.939026,183.257294 811.546448,179.939316 809.242371,174.447708 
	C806.943420,168.968475 809.879944,162.725998 815.561401,160.673553 
	C820.261230,158.975708 825.502625,160.770172 828.192078,164.997925 
	C831.246765,169.799591 830.353943,174.205994 825.028442,179.311737 
z"/>
<path fill="#C90A08" opacity="1.000000" stroke="none" 
	d="
M924.728882,165.020691 
	C924.353333,164.087387 924.026855,162.809250 924.513184,162.284454 
	C929.535950,156.864838 938.593689,157.944580 943.181030,165.025589 
	C936.897400,165.025589 931.026245,165.025589 924.728882,165.020691 
z"/>
</svg>