<svg width="174" height="66" viewBox="0 0 174 66" fill="none" xmlns="http://www.w3.org/2000/svg">
<path d="M56.9003 10.744L101.675 10.744L101.675 37.6069L82.891 37.6069L101.675 54.7984L85.7179 54.7984L67.2966 37.6068L67.2966 54.7983L56.9004 54.7983L56.9003 27.4897L89.7287 27.4897L89.7287 20.9529L56.9003 20.9529L56.9003 10.744Z" fill="black"/>
<path d="M106.324 54.7983L117.267 54.7983L117.267 10.6547L106.324 10.6547L106.324 54.7983Z" fill="black"/>
<path d="M18.6936 44.1431L18.6935 10.744L10.1217 10.744C8.57158 10.744 7.38596 11.9089 7.38597 13.3397C7.38598 21.2219 7.2949 44.4118 7.29492 52.112C7.29492 53.5448 8.48054 54.7983 9.93955 54.7983C15.8667 54.7983 32.9185 54.7983 35.3796 54.7983L35.3795 44.1431L18.6936 44.1431Z" fill="black"/>
<path d="M41.0332 65.812C42.0375 65.812 49.6967 65.812 52.2509 65.812C52.2509 65.812 52.2508 44.0536 52.2508 43.6956C48.6025 43.6956 44.7745 43.6956 41.0332 43.6956C41.0332 51.0377 41.0332 58.3799 41.0332 65.812Z" fill="black"/>
<path d="M24.165 10.7442C24.165 10.9246 24.165 21.7572 24.165 21.7572C29.1806 21.7572 35.5627 21.7572 41.0336 21.7572C41.0336 29.3703 41.0336 38.2339 41.0336 38.2339C43.5877 38.2339 51.247 38.2339 52.2513 38.2339L52.2512 13.4318C52.2512 11.9978 51.064 10.8329 49.6072 10.7442C44.1364 10.7442 31.186 10.7442 24.165 10.7442Z" fill="black"/>
<path d="M24.165 27.1289C24.165 30.8009 24.165 34.473 24.165 38.3223C25.077 38.3223 26.08 38.3223 26.9919 38.3223C29.5464 38.3223 32.7358 38.3223 35.29 38.3223C35.29 38.3223 35.29 27.3093 35.29 27.1289C31.6417 27.1289 27.9038 27.1289 24.165 27.1289ZM32.0075 34.9193C30.9133 34.9193 29.6362 34.9193 28.6319 34.9193C28.2687 34.9193 27.9038 34.9193 27.4479 34.9193C27.4479 33.3967 27.4479 31.9658 27.4479 30.4432C28.9977 30.4432 30.4576 30.4432 32.0075 30.4432C32.0075 30.5318 32.0075 34.9193 32.0075 34.9193Z" fill="black"/>
<path d="M170.977 43.6955L170.977 60.1709C170.977 61.6034 169.7 62.7676 168.243 62.7676L151.465 62.7676L151.465 65.4536L170.977 65.4536L171.07 65.4536C172.437 65.4536 173.621 64.2896 173.621 62.8569L173.621 62.7676L173.621 43.6955L170.977 43.6955Z" fill="black"/>
<path d="M2.73575 21.6682L2.73572 5.19149C2.73572 3.76066 3.82989 2.68437 5.28889 2.68437L22.0676 2.68438C22.1587 2.68438 22.1587 2.59574 22.1587 2.59574L22.1587 0.0886177C22.1587 0.0886177 22.1587 -1.74752e-05 22.0676 -1.75078e-05L2.73571 -2.4438e-05C1.18558 -2.49937e-05 -4.14035e-05 1.1649 -3.83484e-05 2.68437L-1.78216e-07 21.6682C0 21.7568 0.0911274 21.7568 0.0911274 21.7568L2.64463 21.7568C2.64463 21.7568 2.73575 21.7568 2.73575 21.6682Z" fill="black"/>
<path d="M166.235 21.6683L166.234 10.7439L122.009 10.7439L122.009 27.1288L122.009 38.145L151.465 38.145L151.465 43.6059L122.009 43.6059L122.009 54.6191L166.235 54.6192L166.235 27.2206L136.782 27.2206L136.782 21.6683L166.235 21.6683Z" fill="black"/>
</svg>
